<svg width="218" height="104" viewBox="0 0 218 104" fill="none" xmlns="http://www.w3.org/2000/svg">
<path d="M1.13333 13.25V0.25H9.7V2.45H3.9V5.4H8.3V7.43333H3.9V13.25H1.13333Z" fill="#2B2B2B"/>
<path d="M15.9654 13.25V0.25H21.482C22.5931 0.25 23.4931 0.411111 24.182 0.733334C24.882 1.04444 25.3931 1.47778 25.7154 2.03333C26.0487 2.57778 26.2154 3.21111 26.2154 3.93333C26.2154 4.75556 25.9987 5.46667 25.5654 6.06667C25.132 6.66667 24.4931 7.09445 23.6487 7.35L26.5654 13.15V13.25H23.5987L20.9487 7.75H18.732V13.25H15.9654ZM18.732 5.71667H21.082C21.8043 5.71667 22.3654 5.59444 22.7654 5.35C23.1765 5.10556 23.382 4.66667 23.382 4.03333C23.382 3.38889 23.1765 2.95 22.7654 2.71667C22.3543 2.47222 21.7931 2.35 21.082 2.35H18.732V5.71667Z" fill="#2B2B2B"/>
<path d="M32.6333 13.25V0.25H41.5V2.45H35.4V5.31667H40.1V7.35H35.4V11.05H41.6V13.25H32.6333Z" fill="#2B2B2B"/>
<path d="M48.1294 13.25V0.25H56.9961V2.45H50.8961V5.31667H55.5961V7.35H50.8961V11.05H57.0961V13.25H48.1294Z" fill="#2B2B2B"/>
<path d="M63.6255 13.25V0.25H66.4255V11.05H71.8589V13.25H63.6255Z" fill="#2B2B2B"/>
<path d="M76.9922 13.25V13.15L80.9089 0.25H85.2922L89.2255 13.15V13.25H86.3589L83.2089 2.41667H82.8089L79.6255 13.25H76.9922ZM80.2422 10L80.8255 7.9H85.1922L85.7755 10H80.2422Z" fill="#2B2B2B"/>
<path d="M95.1255 13.25V0.25H99.9589L103.992 11.05H104.392V0.25H106.926V13.25H102.059L98.0422 2.45H97.6589V13.25H95.1255Z" fill="#2B2B2B"/>
<path d="M119.145 13.5C117.256 13.5 115.789 12.9056 114.745 11.7167C113.711 10.5278 113.195 8.87222 113.195 6.75C113.195 4.65 113.706 3 114.728 1.8C115.75 0.6 117.217 0 119.128 0C120.273 0 121.25 0.216667 122.061 0.650001C122.873 1.07222 123.506 1.66111 123.961 2.41667C124.417 3.17222 124.684 4.03889 124.761 5.01667H121.978C121.889 4.10556 121.595 3.39444 121.095 2.88333C120.595 2.36111 119.945 2.1 119.145 2.1C118.134 2.1 117.373 2.50556 116.861 3.31667C116.35 4.12778 116.095 5.27778 116.095 6.76667C116.095 8.31111 116.356 9.47222 116.878 10.25C117.411 11.0167 118.161 11.4 119.128 11.4C119.961 11.4 120.623 11.1333 121.111 10.6C121.611 10.0667 121.9 9.36111 121.978 8.48333H124.761C124.684 9.46111 124.417 10.3278 123.961 11.0833C123.506 11.8389 122.873 12.4333 122.061 12.8667C121.261 13.2889 120.289 13.5 119.145 13.5Z" fill="#2B2B2B"/>
<path d="M130.629 13.25V0.25H139.496V2.45H133.396V5.31667H138.096V7.35H133.396V11.05H139.596V13.25H130.629Z" fill="#2B2B2B"/>
<path d="M1.13333 31.25V18.25H10V20.45H3.9V23.3167H8.6V25.35H3.9V29.05H10.1V31.25H1.13333Z" fill="#2B2B2B"/>
<path d="M16.6294 31.25V18.25H21.4628L25.4961 29.05H25.8961V18.25H28.4294V31.25H23.5628L19.5461 20.45H19.1628V31.25H16.6294Z" fill="#2B2B2B"/>
<path d="M38.2487 31.25L34.332 18.35V18.25H37.1654L40.332 28.85H40.732L43.8654 18.25H46.5654V18.35L42.6487 31.25H38.2487Z" fill="#2B2B2B"/>
<path d="M52.4654 31.25V18.25H55.2654V31.25H52.4654Z" fill="#2B2B2B"/>
<path d="M62.2974 31.25V18.25H67.8141C68.9252 18.25 69.8252 18.4111 70.5141 18.7333C71.2141 19.0444 71.7252 19.4778 72.0474 20.0333C72.3807 20.5778 72.5474 21.2111 72.5474 21.9333C72.5474 22.7556 72.3307 23.4667 71.8974 24.0667C71.4641 24.6667 70.8252 25.0944 69.9807 25.35L72.8974 31.15V31.25H69.9307L67.2807 25.75H65.0641V31.25H62.2974ZM65.0641 23.7167H67.4141C68.1363 23.7167 68.6974 23.5944 69.0974 23.35C69.5085 23.1056 69.7141 22.6667 69.7141 22.0333C69.7141 21.3889 69.5085 20.95 69.0974 20.7167C68.6863 20.4722 68.1252 20.35 67.4141 20.35H65.0641V23.7167Z" fill="#2B2B2B"/>
<path d="M84.3654 31.4833C82.9876 31.4833 81.8376 31.2111 80.9154 30.6667C80.0043 30.1111 79.3209 29.3278 78.8654 28.3167C78.4209 27.3056 78.1987 26.1167 78.1987 24.75C78.1987 23.3722 78.4209 22.1833 78.8654 21.1833C79.3209 20.1722 80.0043 19.3944 80.9154 18.85C81.8376 18.2944 82.9876 18.0167 84.3654 18.0167C85.7543 18.0167 86.9042 18.2944 87.8154 18.85C88.7265 19.3944 89.4043 20.1722 89.8487 21.1833C90.3043 22.1833 90.532 23.3722 90.532 24.75C90.532 26.1167 90.3043 27.3056 89.8487 28.3167C89.4043 29.3278 88.7265 30.1111 87.8154 30.6667C86.9042 31.2111 85.7543 31.4833 84.3654 31.4833ZM84.3654 29.3833C85.4876 29.3833 86.3098 28.9833 86.832 28.1833C87.3654 27.3722 87.632 26.2278 87.632 24.75C87.632 23.2611 87.3654 22.1167 86.832 21.3167C86.3098 20.5167 85.4876 20.1167 84.3654 20.1167C83.2431 20.1167 82.4154 20.5167 81.882 21.3167C81.3598 22.1167 81.0987 23.2611 81.0987 24.75C81.0987 26.2278 81.3598 27.3722 81.882 28.1833C82.4154 28.9833 83.2431 29.3833 84.3654 29.3833Z" fill="#2B2B2B"/>
<path d="M96.8052 31.25V18.25H101.639L105.672 29.05H106.072V18.25H108.605V31.25H103.739L99.7219 20.45H99.3385V31.25H96.8052Z" fill="#2B2B2B"/>
<path d="M115.641 31.25V18.25H120.574L122.991 29.05H123.591L126.008 18.25H130.941V31.25H128.341V20.55H127.908L125.541 31.25H120.908L118.541 20.55H118.108V31.25H115.641Z" fill="#2B2B2B"/>
<path d="M137.973 31.25V18.25H146.84V20.45H140.74V23.3167H145.44V25.35H140.74V29.05H146.94V31.25H137.973Z" fill="#2B2B2B"/>
<path d="M153.469 31.25V18.25H158.303L162.336 29.05H162.736V18.25H165.269V31.25H160.403L156.386 20.45H156.003V31.25H153.469Z" fill="#2B2B2B"/>
<path d="M175.389 31.25V20.45H171.539V18.25H182.039V20.45H178.189V31.25H175.389Z" fill="#2B2B2B"/>
<path d="M5.15 49.4833C4.20556 49.4833 3.4 49.3167 2.73333 48.9833C2.06667 48.65 1.55556 48.2111 1.2 47.6667C0.844444 47.1111 0.666667 46.5056 0.666667 45.85C0.666667 45.0278 0.911111 44.3389 1.4 43.7833C1.9 43.2278 2.52222 42.7778 3.26667 42.4333V42.0333C2.88889 41.7 2.56667 41.3111 2.3 40.8667C2.04444 40.4222 1.91667 39.9 1.91667 39.3C1.91667 38.7111 2.05556 38.1722 2.33333 37.6833C2.62222 37.1944 3.05556 36.8 3.63333 36.5C4.21111 36.2 4.94444 36.05 5.83333 36.05C7.07778 36.05 8.01111 36.3222 8.63333 36.8667C9.25556 37.4111 9.56667 38.0889 9.56667 38.9C9.56667 39.4333 9.43889 39.9 9.18333 40.3C8.92778 40.7 8.58889 41.0389 8.16667 41.3167C7.75556 41.5944 7.31111 41.8333 6.83333 42.0333V42.4333L8.55 44.0667C8.68333 44.2 8.8 44.3333 8.9 44.4667C9.01111 44.6 9.10556 44.7333 9.18333 44.8667H9.58333C9.75 44.4556 9.88333 44.0389 9.98333 43.6167C10.0833 43.1944 10.1556 42.7778 10.2 42.3667H13.6167V44.2667H11.7333C11.6444 44.5778 11.5222 44.8833 11.3667 45.1833C11.2222 45.4833 11.0444 45.7944 10.8333 46.1167L13.9667 49.15V49.25H10.6167L9.28333 47.7833H8.88333C8.50556 48.2611 8.02222 48.6667 7.43333 49C6.85556 49.3222 6.09444 49.4833 5.15 49.4833ZM5.71667 47.4167C6.19444 47.4167 6.60556 47.3444 6.95 47.2C7.29444 47.0444 7.6 46.8278 7.86667 46.55L4.5 43.3333C4.12222 43.5778 3.81111 43.8611 3.56667 44.1833C3.32222 44.4944 3.2 44.8722 3.2 45.3167C3.2 45.9278 3.43333 46.4333 3.9 46.8333C4.36667 47.2222 4.97222 47.4167 5.71667 47.4167ZM5.43333 41.0667C5.92222 40.8333 6.33889 40.5611 6.68333 40.25C7.02778 39.9389 7.2 39.55 7.2 39.0833C7.2 38.7167 7.08889 38.4167 6.86667 38.1833C6.65556 37.9389 6.31111 37.8167 5.83333 37.8167C5.32222 37.8167 4.94444 37.95 4.7 38.2167C4.46667 38.4722 4.35 38.7944 4.35 39.1833C4.35 39.5611 4.45556 39.9056 4.66667 40.2167C4.87778 40.5167 5.13333 40.8 5.43333 41.0667Z" fill="#A61210"/>
<path d="M28.4341 49.25V36.25H31.2341V47.05H36.6674V49.25H28.4341Z" fill="#2B2B2B"/>
<path d="M42.9341 49.25V36.25H45.7341V49.25H42.9341Z" fill="#2B2B2B"/>
<path d="M57.6328 49.4833C56.4439 49.4833 55.4273 49.2056 54.5828 48.65C53.7495 48.0833 53.1106 47.2944 52.6661 46.2833C52.2217 45.2611 51.9995 44.0722 51.9995 42.7167C51.9995 41.3389 52.2273 40.15 52.6828 39.15C53.1495 38.15 53.8273 37.3778 54.7161 36.8333C55.6161 36.2889 56.7217 36.0167 58.0328 36.0167C59.1661 36.0167 60.1161 36.2111 60.8828 36.6C61.6495 36.9889 62.2495 37.5278 62.6828 38.2167C63.1161 38.8944 63.3939 39.6833 63.5161 40.5833H60.8495C60.7161 39.7833 60.4106 39.1722 59.9328 38.75C59.455 38.3278 58.8106 38.1167 57.9995 38.1167C56.9217 38.1167 56.1161 38.5222 55.5828 39.3333C55.0606 40.1333 54.7995 41.2667 54.7995 42.7333C54.7995 44.2333 55.0717 45.3889 55.6161 46.2C56.1717 47.0111 56.9884 47.4167 58.0661 47.4167C58.9661 47.4167 59.6606 47.1556 60.1495 46.6333C60.6384 46.1 60.9106 45.3833 60.9661 44.4833H57.2995V42.4667H63.5328V49.25H61.5161V47.75H61.1161C60.8939 48.1944 60.5106 48.5944 59.9661 48.95C59.4328 49.3056 58.655 49.4833 57.6328 49.4833Z" fill="#2B2B2B"/>
<path d="M70.0982 49.25V36.25H72.8982V41.2H78.4315V36.25H81.2315V49.25H78.4315V43.4667H72.8982V49.25H70.0982Z" fill="#2B2B2B"/>
<path d="M91.3534 49.25V38.45H87.5034V36.25H98.0034V38.45H94.1534V49.25H91.3534Z" fill="#2B2B2B"/>
<path d="M104.274 49.25V36.25H107.074V49.25H104.274Z" fill="#2B2B2B"/>
<path d="M114.106 49.25V36.25H118.939L122.973 47.05H123.373V36.25H125.906V49.25H121.039L117.023 38.45H116.639V49.25H114.106Z" fill="#2B2B2B"/>
<path d="M137.809 49.4833C136.62 49.4833 135.603 49.2056 134.759 48.65C133.925 48.0833 133.286 47.2944 132.842 46.2833C132.397 45.2611 132.175 44.0722 132.175 42.7167C132.175 41.3389 132.403 40.15 132.859 39.15C133.325 38.15 134.003 37.3778 134.892 36.8333C135.792 36.2889 136.897 36.0167 138.209 36.0167C139.342 36.0167 140.292 36.2111 141.059 36.6C141.825 36.9889 142.425 37.5278 142.859 38.2167C143.292 38.8944 143.57 39.6833 143.692 40.5833H141.025C140.892 39.7833 140.586 39.1722 140.109 38.75C139.631 38.3278 138.986 38.1167 138.175 38.1167C137.097 38.1167 136.292 38.5222 135.759 39.3333C135.236 40.1333 134.975 41.2667 134.975 42.7333C134.975 44.2333 135.247 45.3889 135.792 46.2C136.347 47.0111 137.164 47.4167 138.242 47.4167C139.142 47.4167 139.836 47.1556 140.325 46.6333C140.814 46.1 141.086 45.3833 141.142 44.4833H137.475V42.4667H143.709V49.25H141.692V47.75H141.292C141.07 48.1944 140.686 48.5944 140.142 48.95C139.609 49.3056 138.831 49.4833 137.809 49.4833Z" fill="#2B2B2B"/>
<path d="M0 67.25V67.15L3.91667 54.25H8.3L12.2333 67.15V67.25H9.36667L6.21667 56.4167H5.81667L2.63333 67.25H0ZM3.25 64L3.83333 61.9H8.2L8.78333 64H3.25Z" fill="#2B2B2B"/>
<path d="M18.1333 67.25V54.25H23.65C24.7611 54.25 25.6611 54.4111 26.35 54.7333C27.05 55.0444 27.5611 55.4778 27.8833 56.0333C28.2167 56.5778 28.3833 57.2111 28.3833 57.9333C28.3833 58.7556 28.1667 59.4667 27.7333 60.0667C27.3 60.6667 26.6611 61.0944 25.8167 61.35L28.7333 67.15V67.25H25.7667L23.1167 61.75H20.9V67.25H18.1333ZM20.9 59.7167H23.25C23.9722 59.7167 24.5333 59.5944 24.9333 59.35C25.3444 59.1056 25.55 58.6667 25.55 58.0333C25.55 57.3889 25.3444 56.95 24.9333 56.7167C24.5222 56.4722 23.9611 56.35 23.25 56.35H20.9V59.7167Z" fill="#2B2B2B"/>
<path d="M37.3768 67.25V56.45H33.5268V54.25H44.0268V56.45H40.1768V67.25H37.3768Z" fill="#2B2B2B"/>
<path d="M50.2974 67.25V54.25H53.0974V67.25H50.2974Z" fill="#2B2B2B"/>
<path d="M64.9128 67.5C63.9016 67.5 63.0461 67.3667 62.3461 67.1C61.6572 66.8222 61.0961 66.4611 60.6628 66.0167C60.2405 65.5722 59.9239 65.0889 59.7128 64.5667C59.5128 64.0333 59.3961 63.5111 59.3628 63H61.9628C61.985 63.4 62.1072 63.7833 62.3294 64.15C62.5516 64.5167 62.885 64.8167 63.3294 65.05C63.7739 65.2833 64.3294 65.4 64.9961 65.4C65.7183 65.4 66.2516 65.2556 66.5961 64.9667C66.9516 64.6667 67.1294 64.2778 67.1294 63.8C67.1294 63.3444 66.9739 62.9722 66.6628 62.6833C66.3628 62.3944 65.9628 62.1667 65.4628 62L63.5794 61.3667C62.9794 61.1667 62.4016 60.9222 61.8461 60.6333C61.3016 60.3333 60.8516 59.9444 60.4961 59.4667C60.1405 58.9778 59.9628 58.3556 59.9628 57.6C59.9628 56.8222 60.1572 56.1667 60.5461 55.6333C60.9461 55.1 61.4905 54.6944 62.1794 54.4167C62.8794 54.1389 63.6794 54 64.5794 54C65.735 54 66.6461 54.1944 67.3128 54.5833C67.9794 54.9722 68.4628 55.4667 68.7628 56.0667C69.0739 56.6556 69.2628 57.2722 69.3294 57.9167H66.7294C66.7072 57.6056 66.6183 57.3111 66.4628 57.0333C66.3183 56.7444 66.085 56.5111 65.7628 56.3333C65.4405 56.1556 65.0072 56.0667 64.4628 56.0667C63.8516 56.0667 63.3961 56.1944 63.0961 56.45C62.8072 56.7056 62.6628 57.0278 62.6628 57.4167C62.6628 57.8389 62.8128 58.1778 63.1128 58.4333C63.4239 58.6889 63.835 58.9056 64.3461 59.0833L66.2294 59.7167C66.8405 59.9167 67.4183 60.1667 67.9628 60.4667C68.5072 60.7667 68.9517 61.1667 69.2961 61.6667C69.6517 62.1556 69.8294 62.8 69.8294 63.6C69.8294 64.8111 69.3961 65.7667 68.5294 66.4667C67.6739 67.1556 66.4683 67.5 64.9128 67.5Z" fill="#2B2B2B"/>
<path d="M78.201 67.25V56.45H74.351V54.25H84.851V56.45H81.001V67.25H78.201Z" fill="#2B2B2B"/>
<path d="M103.642 67.4833C102.698 67.4833 101.892 67.3167 101.226 66.9833C100.559 66.65 100.048 66.2111 99.6922 65.6667C99.3366 65.1111 99.1589 64.5056 99.1589 63.85C99.1589 63.0278 99.4033 62.3389 99.8922 61.7833C100.392 61.2278 101.014 60.7778 101.759 60.4333V60.0333C101.381 59.7 101.059 59.3111 100.792 58.8667C100.537 58.4222 100.409 57.9 100.409 57.3C100.409 56.7111 100.548 56.1722 100.826 55.6833C101.114 55.1944 101.548 54.8 102.126 54.5C102.703 54.2 103.437 54.05 104.326 54.05C105.57 54.05 106.503 54.3222 107.126 54.8667C107.748 55.4111 108.059 56.0889 108.059 56.9C108.059 57.4333 107.931 57.9 107.676 58.3C107.42 58.7 107.081 59.0389 106.659 59.3167C106.248 59.5944 105.803 59.8333 105.326 60.0333V60.4333L107.042 62.0667C107.176 62.2 107.292 62.3333 107.392 62.4667C107.503 62.6 107.598 62.7333 107.676 62.8667H108.076C108.242 62.4556 108.376 62.0389 108.476 61.6167C108.576 61.1944 108.648 60.7778 108.692 60.3667H112.109V62.2667H110.226C110.137 62.5778 110.014 62.8833 109.859 63.1833C109.714 63.4833 109.537 63.7944 109.326 64.1167L112.459 67.15V67.25H109.109L107.776 65.7833H107.376C106.998 66.2611 106.514 66.6667 105.926 67C105.348 67.3222 104.587 67.4833 103.642 67.4833ZM104.209 65.4167C104.687 65.4167 105.098 65.3444 105.442 65.2C105.787 65.0444 106.092 64.8278 106.359 64.55L102.992 61.3333C102.614 61.5778 102.303 61.8611 102.059 62.1833C101.814 62.4944 101.692 62.8722 101.692 63.3167C101.692 63.9278 101.926 64.4333 102.392 64.8333C102.859 65.2222 103.464 65.4167 104.209 65.4167ZM103.926 59.0667C104.414 58.8333 104.831 58.5611 105.176 58.25C105.52 57.9389 105.692 57.55 105.692 57.0833C105.692 56.7167 105.581 56.4167 105.359 56.1833C105.148 55.9389 104.803 55.8167 104.326 55.8167C103.814 55.8167 103.437 55.95 103.192 56.2167C102.959 56.4722 102.842 56.7944 102.842 57.1833C102.842 57.5611 102.948 57.9056 103.159 58.2167C103.37 58.5167 103.626 58.8 103.926 59.0667Z" fill="#A61210"/>
<path d="M126.926 67.25V54.25H129.726V65.05H135.16V67.25H126.926Z" fill="#2B2B2B"/>
<path d="M146.318 67.4833C144.941 67.4833 143.791 67.2111 142.868 66.6667C141.957 66.1111 141.274 65.3278 140.818 64.3167C140.374 63.3056 140.152 62.1167 140.152 60.75C140.152 59.3722 140.374 58.1833 140.818 57.1833C141.274 56.1722 141.957 55.3944 142.868 54.85C143.791 54.2944 144.941 54.0167 146.318 54.0167C147.707 54.0167 148.857 54.2944 149.768 54.85C150.68 55.3944 151.357 56.1722 151.802 57.1833C152.257 58.1833 152.485 59.3722 152.485 60.75C152.485 62.1167 152.257 63.3056 151.802 64.3167C151.357 65.3278 150.68 66.1111 149.768 66.6667C148.857 67.2111 147.707 67.4833 146.318 67.4833ZM146.318 65.3833C147.441 65.3833 148.263 64.9833 148.785 64.1833C149.318 63.3722 149.585 62.2278 149.585 60.75C149.585 59.2611 149.318 58.1167 148.785 57.3167C148.263 56.5167 147.441 56.1167 146.318 56.1167C145.196 56.1167 144.368 56.5167 143.835 57.3167C143.313 58.1167 143.052 59.2611 143.052 60.75C143.052 62.2278 143.313 63.3722 143.835 64.1833C144.368 64.9833 145.196 65.3833 146.318 65.3833Z" fill="#2B2B2B"/>
<path d="M164.158 67.4833C162.781 67.4833 161.631 67.2111 160.708 66.6667C159.797 66.1111 159.114 65.3278 158.658 64.3167C158.214 63.3056 157.992 62.1167 157.992 60.75C157.992 59.3722 158.214 58.1833 158.658 57.1833C159.114 56.1722 159.797 55.3944 160.708 54.85C161.631 54.2944 162.781 54.0167 164.158 54.0167C165.547 54.0167 166.697 54.2944 167.608 54.85C168.519 55.3944 169.197 56.1722 169.642 57.1833C170.097 58.1833 170.325 59.3722 170.325 60.75C170.325 62.1167 170.097 63.3056 169.642 64.3167C169.197 65.3278 168.519 66.1111 167.608 66.6667C166.697 67.2111 165.547 67.4833 164.158 67.4833ZM164.158 65.3833C165.281 65.3833 166.103 64.9833 166.625 64.1833C167.158 63.3722 167.425 62.2278 167.425 60.75C167.425 59.2611 167.158 58.1167 166.625 57.3167C166.103 56.5167 165.281 56.1167 164.158 56.1167C163.036 56.1167 162.208 56.5167 161.675 57.3167C161.153 58.1167 160.892 59.2611 160.892 60.75C160.892 62.2278 161.153 63.3722 161.675 64.1833C162.208 64.9833 163.036 65.3833 164.158 65.3833Z" fill="#2B2B2B"/>
<path d="M176.598 67.25V54.25H179.332V59.25H180.332L184.065 54.25H187.165V54.35L182.665 60.2167L187.898 67.15V67.25H184.565L180.332 61.45H179.332V67.25H176.598Z" fill="#2B2B2B"/>
<path d="M1.13333 85.25V72.25H5.76667C8.07778 72.25 9.75556 72.8222 10.8 73.9667C11.8444 75.1 12.3667 76.6944 12.3667 78.75C12.3667 80.8056 11.8444 82.4056 10.8 83.55C9.75556 84.6833 8.07778 85.25 5.76667 85.25H1.13333ZM3.93333 83.0833H5.6C6.45556 83.0833 7.16667 82.9556 7.73333 82.7C8.31111 82.4333 8.74444 81.9889 9.03333 81.3667C9.32222 80.7333 9.46667 79.8611 9.46667 78.75C9.46667 77.6389 9.32222 76.7722 9.03333 76.15C8.74444 75.5167 8.31111 75.0722 7.73333 74.8167C7.16667 74.55 6.45556 74.4167 5.6 74.4167H3.93333V83.0833Z" fill="#2B2B2B"/>
<path d="M18.6411 85.25V72.25H27.5078V74.45H21.4078V77.3167H26.1078V79.35H21.4078V83.05H27.6078V85.25H18.6411Z" fill="#2B2B2B"/>
<path d="M36.9206 85.25L33.0039 72.35V72.25H35.8372L39.0039 82.85H39.4039L42.5372 72.25H45.2372V72.35L41.3206 85.25H36.9206Z" fill="#2B2B2B"/>
<path d="M51.1372 85.25V72.25H60.0039V74.45H53.9039V77.3167H58.6039V79.35H53.9039V83.05H60.1039V85.25H51.1372Z" fill="#2B2B2B"/>
<path d="M66.6333 85.25V72.25H69.4333V83.05H74.8667V85.25H66.6333Z" fill="#2B2B2B"/>
<path d="M86.0255 85.4833C84.6477 85.4833 83.4977 85.2111 82.5755 84.6667C81.6644 84.1111 80.9811 83.3278 80.5255 82.3167C80.0811 81.3056 79.8589 80.1167 79.8589 78.75C79.8589 77.3722 80.0811 76.1833 80.5255 75.1833C80.9811 74.1722 81.6644 73.3944 82.5755 72.85C83.4977 72.2944 84.6477 72.0167 86.0255 72.0167C87.4144 72.0167 88.5644 72.2944 89.4755 72.85C90.3866 73.3944 91.0644 74.1722 91.5089 75.1833C91.9644 76.1833 92.1922 77.3722 92.1922 78.75C92.1922 80.1167 91.9644 81.3056 91.5089 82.3167C91.0644 83.3278 90.3866 84.1111 89.4755 84.6667C88.5644 85.2111 87.4144 85.4833 86.0255 85.4833ZM86.0255 83.3833C87.1477 83.3833 87.97 82.9833 88.4922 82.1833C89.0255 81.3722 89.2922 80.2278 89.2922 78.75C89.2922 77.2611 89.0255 76.1167 88.4922 75.3167C87.97 74.5167 87.1477 74.1167 86.0255 74.1167C84.9033 74.1167 84.0755 74.5167 83.5422 75.3167C83.02 76.1167 82.7589 77.2611 82.7589 78.75C82.7589 80.2278 83.02 81.3722 83.5422 82.1833C84.0755 82.9833 84.9033 83.3833 86.0255 83.3833Z" fill="#2B2B2B"/>
<path d="M98.4654 85.25V72.25H103.899C105.565 72.25 106.782 72.6056 107.549 73.3167C108.315 74.0167 108.699 74.9611 108.699 76.15C108.699 77.3389 108.315 78.2889 107.549 79C106.793 79.7111 105.576 80.0667 103.899 80.0667H101.232V85.25H98.4654ZM101.232 77.9667H103.482C104.238 77.9667 104.826 77.8389 105.249 77.5833C105.682 77.3167 105.899 76.8444 105.899 76.1667C105.899 75.5 105.682 75.0333 105.249 74.7667C104.826 74.4889 104.238 74.35 103.482 74.35H101.232V77.9667Z" fill="#2B2B2B"/>
<path d="M114.958 85.25V72.25H119.891L122.308 83.05H122.908L125.324 72.25H130.258V85.25H127.658V74.55H127.224L124.858 85.25H120.224L117.858 74.55H117.424V85.25H114.958Z" fill="#2B2B2B"/>
<path d="M137.29 85.25V72.25H146.156V74.45H140.056V77.3167H144.756V79.35H140.056V83.05H146.256V85.25H137.29Z" fill="#2B2B2B"/>
<path d="M152.786 85.25V72.25H157.619L161.652 83.05H162.052V72.25H164.586V85.25H159.719L155.702 74.45H155.319V85.25H152.786Z" fill="#2B2B2B"/>
<path d="M174.705 85.25V74.45H170.855V72.25H181.355V74.45H177.505V85.25H174.705Z" fill="#2B2B2B"/>
<path d="M5.15 103.483C4.20556 103.483 3.4 103.317 2.73333 102.983C2.06667 102.65 1.55556 102.211 1.2 101.667C0.844444 101.111 0.666667 100.506 0.666667 99.85C0.666667 99.0278 0.911111 98.3389 1.4 97.7833C1.9 97.2278 2.52222 96.7778 3.26667 96.4333V96.0333C2.88889 95.7 2.56667 95.3111 2.3 94.8667C2.04444 94.4222 1.91667 93.9 1.91667 93.3C1.91667 92.7111 2.05556 92.1722 2.33333 91.6833C2.62222 91.1944 3.05556 90.8 3.63333 90.5C4.21111 90.2 4.94444 90.05 5.83333 90.05C7.07778 90.05 8.01111 90.3222 8.63333 90.8667C9.25556 91.4111 9.56667 92.0889 9.56667 92.9C9.56667 93.4333 9.43889 93.9 9.18333 94.3C8.92778 94.7 8.58889 95.0389 8.16667 95.3167C7.75556 95.5944 7.31111 95.8333 6.83333 96.0333V96.4333L8.55 98.0667C8.68333 98.2 8.8 98.3333 8.9 98.4667C9.01111 98.6 9.10556 98.7333 9.18333 98.8667H9.58333C9.75 98.4556 9.88333 98.0389 9.98333 97.6167C10.0833 97.1944 10.1556 96.7778 10.2 96.3667H13.6167V98.2667H11.7333C11.6444 98.5778 11.5222 98.8833 11.3667 99.1833C11.2222 99.4833 11.0444 99.7944 10.8333 100.117L13.9667 103.15V103.25H10.6167L9.28333 101.783H8.88333C8.50556 102.261 8.02222 102.667 7.43333 103C6.85556 103.322 6.09444 103.483 5.15 103.483ZM5.71667 101.417C6.19444 101.417 6.60556 101.344 6.95 101.2C7.29444 101.044 7.6 100.828 7.86667 100.55L4.5 97.3333C4.12222 97.5778 3.81111 97.8611 3.56667 98.1833C3.32222 98.4944 3.2 98.8722 3.2 99.3167C3.2 99.9278 3.43333 100.433 3.9 100.833C4.36667 101.222 4.97222 101.417 5.71667 101.417ZM5.43333 95.0667C5.92222 94.8333 6.33889 94.5611 6.68333 94.25C7.02778 93.9389 7.2 93.55 7.2 93.0833C7.2 92.7167 7.08889 92.4167 6.86667 92.1833C6.65556 91.9389 6.31111 91.8167 5.83333 91.8167C5.32222 91.8167 4.94444 91.95 4.7 92.2167C4.46667 92.4722 4.35 92.7944 4.35 93.1833C4.35 93.5611 4.45556 93.9056 4.66667 94.2167C4.87778 94.5167 5.13333 94.8 5.43333 95.0667Z" fill="#A61210"/>
<path d="M27.3008 103.25V103.15L31.2174 90.25H35.6008L39.5341 103.15V103.25H36.6674L33.5174 92.4167H33.1174L29.9341 103.25H27.3008ZM30.5508 100L31.1341 97.9H35.5008L36.0841 100H30.5508Z" fill="#2B2B2B"/>
<path d="M45.4341 103.25V90.25H50.9508C52.0619 90.25 52.9619 90.4111 53.6508 90.7333C54.3508 91.0444 54.8619 91.4778 55.1841 92.0333C55.5174 92.5778 55.6841 93.2111 55.6841 93.9333C55.6841 94.7556 55.4674 95.4667 55.0341 96.0667C54.6008 96.6667 53.9619 97.0944 53.1174 97.35L56.0341 103.15V103.25H53.0674L50.4174 97.75H48.2008V103.25H45.4341ZM48.2008 95.7167H50.5508C51.273 95.7167 51.8341 95.5944 52.2341 95.35C52.6452 95.1056 52.8508 94.6667 52.8508 94.0333C52.8508 93.3889 52.6452 92.95 52.2341 92.7167C51.823 92.4722 51.2619 92.35 50.5508 92.35H48.2008V95.7167Z" fill="#2B2B2B"/>
<path d="M64.6776 103.25V92.45H60.8276V90.25H71.3276V92.45H67.4776V103.25H64.6776Z" fill="#2B2B2B"/>
<path d="M86.1021 103.25V90.25H90.7354C93.0465 90.25 94.7243 90.8222 95.7688 91.9667C96.8132 93.1 97.3354 94.6944 97.3354 96.75C97.3354 98.8056 96.8132 100.406 95.7688 101.55C94.7243 102.683 93.0465 103.25 90.7354 103.25H86.1021ZM88.9021 101.083H90.5687C91.4243 101.083 92.1354 100.956 92.7021 100.7C93.2799 100.433 93.7132 99.9889 94.0021 99.3667C94.291 98.7333 94.4354 97.8611 94.4354 96.75C94.4354 95.6389 94.291 94.7722 94.0021 94.15C93.7132 93.5167 93.2799 93.0722 92.7021 92.8167C92.1354 92.55 91.4243 92.4167 90.5687 92.4167H88.9021V101.083Z" fill="#2B2B2B"/>
<path d="M103.61 103.25V90.25H106.41V103.25H103.61Z" fill="#2B2B2B"/>
<path d="M113.442 103.25V90.25H118.959C120.07 90.25 120.97 90.4111 121.659 90.7333C122.359 91.0444 122.87 91.4778 123.192 92.0333C123.525 92.5778 123.692 93.2111 123.692 93.9333C123.692 94.7556 123.475 95.4667 123.042 96.0667C122.609 96.6667 121.97 97.0944 121.125 97.35L124.042 103.15V103.25H121.075L118.425 97.75H116.209V103.25H113.442ZM116.209 95.7167H118.559C119.281 95.7167 119.842 95.5944 120.242 95.35C120.653 95.1056 120.859 94.6667 120.859 94.0333C120.859 93.3889 120.653 92.95 120.242 92.7167C119.831 92.4722 119.27 92.35 118.559 92.35H116.209V95.7167Z" fill="#2B2B2B"/>
<path d="M130.11 103.25V90.25H138.977V92.45H132.877V95.3167H137.577V97.35H132.877V101.05H139.077V103.25H130.11Z" fill="#2B2B2B"/>
<path d="M150.457 103.5C148.568 103.5 147.102 102.906 146.057 101.717C145.024 100.528 144.507 98.8722 144.507 96.75C144.507 94.65 145.018 93 146.041 91.8C147.063 90.6 148.53 90 150.441 90C151.585 90 152.563 90.2167 153.374 90.65C154.185 91.0722 154.818 91.6611 155.274 92.4167C155.73 93.1722 155.996 94.0389 156.074 95.0167H153.291C153.202 94.1056 152.907 93.3944 152.407 92.8833C151.907 92.3611 151.257 92.1 150.457 92.1C149.446 92.1 148.685 92.5056 148.174 93.3167C147.663 94.1278 147.407 95.2778 147.407 96.7667C147.407 98.3111 147.668 99.4722 148.191 100.25C148.724 101.017 149.474 101.4 150.441 101.4C151.274 101.4 151.935 101.133 152.424 100.6C152.924 100.067 153.213 99.3611 153.291 98.4833H156.074C155.996 99.4611 155.73 100.328 155.274 101.083C154.818 101.839 154.185 102.433 153.374 102.867C152.574 103.289 151.602 103.5 150.457 103.5Z" fill="#2B2B2B"/>
<path d="M164.849 103.25V92.45H160.999V90.25H171.499V92.45H167.649V103.25H164.849Z" fill="#2B2B2B"/>
<path d="M177.77 103.25V90.25H180.57V103.25H177.77Z" fill="#2B2B2B"/>
<path d="M193.002 103.483C191.624 103.483 190.474 103.211 189.552 102.667C188.641 102.111 187.958 101.328 187.502 100.317C187.058 99.3056 186.835 98.1167 186.835 96.75C186.835 95.3722 187.058 94.1833 187.502 93.1833C187.958 92.1722 188.641 91.3944 189.552 90.85C190.474 90.2944 191.624 90.0167 193.002 90.0167C194.391 90.0167 195.541 90.2944 196.452 90.85C197.363 91.3944 198.041 92.1722 198.485 93.1833C198.941 94.1833 199.169 95.3722 199.169 96.75C199.169 98.1167 198.941 99.3056 198.485 100.317C198.041 101.328 197.363 102.111 196.452 102.667C195.541 103.211 194.391 103.483 193.002 103.483ZM193.002 101.383C194.124 101.383 194.947 100.983 195.469 100.183C196.002 99.3722 196.269 98.2278 196.269 96.75C196.269 95.2611 196.002 94.1167 195.469 93.3167C194.947 92.5167 194.124 92.1167 193.002 92.1167C191.88 92.1167 191.052 92.5167 190.519 93.3167C189.997 94.1167 189.735 95.2611 189.735 96.75C189.735 98.2278 189.997 99.3722 190.519 100.183C191.052 100.983 191.88 101.383 193.002 101.383Z" fill="#2B2B2B"/>
<path d="M205.442 103.25V90.25H210.275L214.309 101.05H214.709V90.25H217.242V103.25H212.375L208.359 92.45H207.975V103.25H205.442Z" fill="#2B2B2B"/>
</svg>
