<svg width="122" height="153" viewBox="0 0 122 153" fill="none" xmlns="http://www.w3.org/2000/svg">
<path d="M108.25 1.13333L121.25 1.13333L121.25 9.7L119.05 9.7L119.05 3.9L116.1 3.9L116.1 8.3L114.067 8.3L114.067 3.9L108.25 3.9L108.25 1.13333Z" fill="#2B2B2B"/>
<path d="M108.25 12.9654L121.25 12.9654L121.25 18.482C121.25 19.5931 121.089 20.4931 120.767 21.182C120.456 21.882 120.022 22.3931 119.467 22.7154C118.922 23.0487 118.289 23.2154 117.567 23.2154C116.744 23.2154 116.033 22.9987 115.433 22.5654C114.833 22.132 114.406 21.4931 114.15 20.6487L108.35 23.5654L108.25 23.5654L108.25 20.5987L113.75 17.9487L113.75 15.732L108.25 15.732L108.25 12.9654ZM115.783 15.732L115.783 18.082C115.783 18.8043 115.906 19.3654 116.15 19.7654C116.394 20.1765 116.833 20.382 117.467 20.382C118.111 20.382 118.55 20.1765 118.783 19.7654C119.028 19.3543 119.15 18.7931 119.15 18.082L119.15 15.732L115.783 15.732Z" fill="#2B2B2B"/>
<path d="M108.25 26.6333L121.25 26.6333L121.25 35.5L119.05 35.5L119.05 29.4L116.183 29.4L116.183 34.1L114.15 34.1L114.15 29.4L110.45 29.4L110.45 35.6L108.25 35.6L108.25 26.6333Z" fill="#2B2B2B"/>
<path d="M108.25 39.1294L121.25 39.1294L121.25 47.9961L119.05 47.9961L119.05 41.8961L116.183 41.8961L116.183 46.5961L114.15 46.5961L114.15 41.8961L110.45 41.8961L110.45 48.0961L108.25 48.0961L108.25 39.1294Z" fill="#2B2B2B"/>
<path d="M108.25 51.6255L121.25 51.6255L121.25 54.4255L110.45 54.4255L110.45 59.8589L108.25 59.8589L108.25 51.6255Z" fill="#2B2B2B"/>
<path d="M108.25 61.9922L108.35 61.9922L121.25 65.9089L121.25 70.2922L108.35 74.2255L108.25 74.2255L108.25 71.3589L119.083 68.2089L119.083 67.8089L108.25 64.6255L108.25 61.9922ZM111.5 65.2422L113.6 65.8255L113.6 70.1922L111.5 70.7755L111.5 65.2422Z" fill="#2B2B2B"/>
<path d="M108.25 77.1255L121.25 77.1255L121.25 81.9589L110.45 85.9922L110.45 86.3922L121.25 86.3922L121.25 88.9255L108.25 88.9255L108.25 84.0589L119.05 80.0422L119.05 79.6589L108.25 79.6589L108.25 77.1255Z" fill="#2B2B2B"/>
<path d="M108 98.1448C108 96.2559 108.594 94.7892 109.783 93.7448C110.972 92.7115 112.628 92.1948 114.75 92.1948C116.85 92.1948 118.5 92.7059 119.7 93.7281C120.9 94.7504 121.5 96.217 121.5 98.1281C121.5 99.2726 121.283 100.25 120.85 101.061C120.428 101.873 119.839 102.506 119.083 102.961C118.328 103.417 117.461 103.684 116.483 103.761L116.483 100.978C117.394 100.889 118.106 100.595 118.617 100.095C119.139 99.5948 119.4 98.9448 119.4 98.1448C119.4 97.1337 118.994 96.3726 118.183 95.8615C117.372 95.3503 116.222 95.0948 114.733 95.0948C113.189 95.0948 112.028 95.3559 111.25 95.8781C110.483 96.4115 110.1 97.1615 110.1 98.1281C110.1 98.9615 110.367 99.6226 110.9 100.111C111.433 100.611 112.139 100.9 113.017 100.978L113.017 103.761C112.039 103.684 111.172 103.417 110.417 102.961C109.661 102.506 109.067 101.873 108.633 101.061C108.211 100.261 108 99.2892 108 98.1448Z" fill="#2B2B2B"/>
<path d="M108.25 106.629L121.25 106.629L121.25 115.496L119.05 115.496L119.05 109.396L116.183 109.396L116.183 114.096L114.15 114.096L114.15 109.396L110.45 109.396L110.45 115.596L108.25 115.596L108.25 106.629Z" fill="#2B2B2B"/>
<path d="M90.25 1.13333L103.25 1.13333L103.25 10L101.05 10L101.05 3.9L98.1833 3.9L98.1833 8.6L96.15 8.6L96.15 3.9L92.45 3.9L92.45 10.1L90.25 10.1L90.25 1.13333Z" fill="#2B2B2B"/>
<path d="M90.25 13.6294L103.25 13.6294L103.25 18.4628L92.45 22.4961L92.45 22.8961L103.25 22.8961L103.25 25.4294L90.25 25.4294L90.25 20.5628L101.05 16.5461L101.05 16.1628L90.25 16.1628L90.25 13.6294Z" fill="#2B2B2B"/>
<path d="M90.25 32.2487L103.15 28.332L103.25 28.332L103.25 31.1654L92.65 34.332L92.65 34.732L103.25 37.8654L103.25 40.5654L103.15 40.5654L90.25 36.6487L90.25 32.2487Z" fill="#2B2B2B"/>
<path d="M90.25 43.4654L103.25 43.4654L103.25 46.2654L90.25 46.2654L90.25 43.4654Z" fill="#2B2B2B"/>
<path d="M90.25 50.2974L103.25 50.2974L103.25 55.8141C103.25 56.9252 103.089 57.8252 102.767 58.5141C102.456 59.2141 102.022 59.7252 101.467 60.0474C100.922 60.3807 100.289 60.5474 99.5667 60.5474C98.7444 60.5474 98.0333 60.3307 97.4333 59.8974C96.8333 59.4641 96.4056 58.8252 96.15 57.9807L90.35 60.8974L90.25 60.8974L90.25 57.9307L95.75 55.2807L95.75 53.0641L90.25 53.0641L90.25 50.2974ZM97.7833 53.0641L97.7833 55.4141C97.7833 56.1363 97.9056 56.6974 98.15 57.0974C98.3944 57.5085 98.8333 57.7141 99.4667 57.7141C100.111 57.7141 100.55 57.5085 100.783 57.0974C101.028 56.6863 101.15 56.1252 101.15 55.4141L101.15 53.0641L97.7833 53.0641Z" fill="#2B2B2B"/>
<path d="M90.0167 69.3654C90.0167 67.9876 90.2889 66.8376 90.8333 65.9154C91.3889 65.0043 92.1722 64.3209 93.1833 63.8654C94.1944 63.4209 95.3833 63.1987 96.75 63.1987C98.1278 63.1987 99.3167 63.4209 100.317 63.8654C101.328 64.3209 102.106 65.0043 102.65 65.9154C103.206 66.8376 103.483 67.9876 103.483 69.3654C103.483 70.7542 103.206 71.9043 102.65 72.8154C102.106 73.7265 101.328 74.4043 100.317 74.8487C99.3167 75.3043 98.1278 75.532 96.75 75.532C95.3833 75.532 94.1944 75.3043 93.1833 74.8487C92.1722 74.4043 91.3889 73.7265 90.8333 72.8154C90.2889 71.9042 90.0167 70.7542 90.0167 69.3654ZM92.1167 69.3654C92.1167 70.4876 92.5167 71.3098 93.3167 71.832C94.1278 72.3654 95.2722 72.632 96.75 72.632C98.2389 72.632 99.3833 72.3654 100.183 71.832C100.983 71.3098 101.383 70.4876 101.383 69.3654C101.383 68.2431 100.983 67.4154 100.183 66.882C99.3833 66.3598 98.2389 66.0987 96.75 66.0987C95.2722 66.0987 94.1278 66.3598 93.3167 66.882C92.5167 67.4154 92.1167 68.2431 92.1167 69.3654Z" fill="#2B2B2B"/>
<path d="M90.25 78.8052L103.25 78.8052L103.25 83.6385L92.45 87.6719L92.45 88.0719L103.25 88.0719L103.25 90.6052L90.25 90.6052L90.25 85.7385L101.05 81.7219L101.05 81.3385L90.25 81.3385L90.25 78.8052Z" fill="#2B2B2B"/>
<path d="M90.25 94.6411L103.25 94.6411L103.25 99.5745L92.45 101.991L92.45 102.591L103.25 105.008L103.25 109.941L90.25 109.941L90.25 107.341L100.95 107.341L100.95 106.908L90.25 104.541L90.25 99.9078L100.95 97.5411L100.95 97.1078L90.25 97.1078L90.25 94.6411Z" fill="#2B2B2B"/>
<path d="M90.25 113.973L103.25 113.973L103.25 122.84L101.05 122.84L101.05 116.74L98.1833 116.74L98.1833 121.44L96.15 121.44L96.15 116.74L92.45 116.74L92.45 122.94L90.25 122.94L90.25 113.973Z" fill="#2B2B2B"/>
<path d="M90.25 126.469L103.25 126.469L103.25 131.303L92.45 135.336L92.45 135.736L103.25 135.736L103.25 138.269L90.25 138.269L90.25 133.403L101.05 129.386L101.05 129.003L90.25 129.003L90.25 126.469Z" fill="#2B2B2B"/>
<path d="M90.25 145.389L101.05 145.389L101.05 141.539L103.25 141.539L103.25 152.039L101.05 152.039L101.05 148.189L90.25 148.189L90.25 145.389Z" fill="#2B2B2B"/>
<path d="M72.0167 5.15C72.0167 4.20555 72.1833 3.4 72.5167 2.73333C72.85 2.06666 73.2889 1.55555 73.8333 1.2C74.3889 0.844442 74.9944 0.666665 75.65 0.666665C76.4722 0.666665 77.1611 0.911109 77.7167 1.4C78.2722 1.9 78.7222 2.52222 79.0667 3.26666L79.4667 3.26666C79.8 2.88889 80.1889 2.56666 80.6333 2.3C81.0778 2.04444 81.6 1.91666 82.2 1.91666C82.7889 1.91666 83.3278 2.05555 83.8167 2.33333C84.3056 2.62222 84.7 3.05555 85 3.63333C85.3 4.21111 85.45 4.94444 85.45 5.83333C85.45 7.07778 85.1778 8.01111 84.6333 8.63333C84.0889 9.25555 83.4111 9.56666 82.6 9.56666C82.0667 9.56666 81.6 9.43889 81.2 9.18333C80.8 8.92778 80.4611 8.58889 80.1833 8.16667C79.9056 7.75555 79.6667 7.31111 79.4667 6.83333L79.0667 6.83333L77.4333 8.55C77.3 8.68333 77.1667 8.8 77.0333 8.9C76.9 9.01111 76.7667 9.10555 76.6333 9.18333L76.6333 9.58333C77.0444 9.75 77.4611 9.88333 77.8833 9.98333C78.3056 10.0833 78.7222 10.1556 79.1333 10.2L79.1333 13.6167L77.2333 13.6167L77.2333 11.7333C76.9222 11.6444 76.6167 11.5222 76.3167 11.3667C76.0167 11.2222 75.7056 11.0444 75.3833 10.8333L72.35 13.9667L72.25 13.9667L72.25 10.6167L73.7167 9.28333L73.7167 8.88333C73.2389 8.50555 72.8333 8.02222 72.5 7.43333C72.1778 6.85555 72.0167 6.09444 72.0167 5.15ZM74.0833 5.71667C74.0833 6.19444 74.1556 6.60555 74.3 6.95C74.4556 7.29444 74.6722 7.6 74.95 7.86666L78.1667 4.5C77.9222 4.12222 77.6389 3.81111 77.3167 3.56666C77.0056 3.32222 76.6278 3.2 76.1833 3.2C75.5722 3.2 75.0667 3.43333 74.6667 3.9C74.2778 4.36666 74.0833 4.97222 74.0833 5.71667ZM80.4333 5.43333C80.6667 5.92222 80.9389 6.33889 81.25 6.68333C81.5611 7.02778 81.95 7.2 82.4167 7.2C82.7833 7.2 83.0833 7.08889 83.3167 6.86666C83.5611 6.65555 83.6833 6.31111 83.6833 5.83333C83.6833 5.32222 83.55 4.94444 83.2833 4.7C83.0278 4.46667 82.7056 4.35 82.3167 4.35C81.9389 4.35 81.5944 4.45555 81.2833 4.66667C80.9833 4.87778 80.7 5.13333 80.4333 5.43333Z" fill="#A61210"/>
<path d="M72.25 22.4341L85.25 22.4341L85.25 25.2341L74.45 25.2341L74.45 30.6674L72.25 30.6674L72.25 22.4341Z" fill="#2B2B2B"/>
<path d="M72.25 33.9341L85.25 33.9341L85.25 36.7341L72.25 36.7341L72.25 33.9341Z" fill="#2B2B2B"/>
<path d="M72.0167 45.6328C72.0167 44.4439 72.2944 43.4273 72.85 42.5828C73.4167 41.7495 74.2056 41.1106 75.2167 40.6661C76.2389 40.2217 77.4278 39.9995 78.7833 39.9995C80.1611 39.9995 81.35 40.2273 82.35 40.6828C83.35 41.1495 84.1222 41.8273 84.6667 42.7161C85.2111 43.6161 85.4833 44.7217 85.4833 46.0328C85.4833 47.1661 85.2889 48.1161 84.9 48.8828C84.5111 49.6495 83.9722 50.2495 83.2833 50.6828C82.6056 51.1161 81.8167 51.3939 80.9167 51.5161L80.9167 48.8495C81.7167 48.7161 82.3278 48.4106 82.75 47.9328C83.1722 47.455 83.3833 46.8106 83.3833 45.9995C83.3833 44.9217 82.9778 44.1161 82.1667 43.5828C81.3667 43.0606 80.2333 42.7995 78.7667 42.7995C77.2667 42.7995 76.1111 43.0717 75.3 43.6161C74.4889 44.1717 74.0833 44.9884 74.0833 46.0661C74.0833 46.9661 74.3444 47.6606 74.8667 48.1495C75.4 48.6384 76.1167 48.9106 77.0167 48.9661L77.0167 45.2995L79.0333 45.2995L79.0333 51.5328L72.25 51.5328L72.25 49.5161L73.75 49.5161L73.75 49.1161C73.3056 48.8939 72.9056 48.5106 72.55 47.9661C72.1944 47.4328 72.0167 46.655 72.0167 45.6328Z" fill="#2B2B2B"/>
<path d="M72.25 55.0982L85.25 55.0982L85.25 57.8982L80.3 57.8982L80.3 63.4315L85.25 63.4315L85.25 66.2315L72.25 66.2315L72.25 63.4315L78.0333 63.4315L78.0333 57.8982L72.25 57.8982L72.25 55.0982Z" fill="#2B2B2B"/>
<path d="M72.25 73.3534L83.05 73.3534L83.05 69.5034L85.25 69.5034L85.25 80.0034L83.05 80.0034L83.05 76.1534L72.25 76.1534L72.25 73.3534Z" fill="#2B2B2B"/>
<path d="M72.25 83.274L85.25 83.274L85.25 86.074L72.25 86.074L72.25 83.274Z" fill="#2B2B2B"/>
<path d="M72.25 90.106L85.25 90.106L85.25 94.9393L74.45 98.9727L74.45 99.3727L85.25 99.3727L85.25 101.906L72.25 101.906L72.25 97.0393L83.05 93.0227L83.05 92.6393L72.25 92.6393L72.25 90.106Z" fill="#2B2B2B"/>
<path d="M72.0167 110.809C72.0167 109.62 72.2944 108.603 72.85 107.759C73.4167 106.925 74.2056 106.286 75.2167 105.842C76.2389 105.397 77.4278 105.175 78.7833 105.175C80.1611 105.175 81.35 105.403 82.35 105.859C83.35 106.325 84.1222 107.003 84.6667 107.892C85.2111 108.792 85.4833 109.897 85.4833 111.209C85.4833 112.342 85.2889 113.292 84.9 114.059C84.5111 114.825 83.9722 115.425 83.2833 115.859C82.6056 116.292 81.8167 116.57 80.9167 116.692L80.9167 114.025C81.7167 113.892 82.3278 113.586 82.75 113.109C83.1722 112.631 83.3833 111.986 83.3833 111.175C83.3833 110.097 82.9778 109.292 82.1667 108.759C81.3667 108.236 80.2333 107.975 78.7667 107.975C77.2667 107.975 76.1111 108.247 75.3 108.792C74.4889 109.347 74.0833 110.164 74.0833 111.242C74.0833 112.142 74.3444 112.836 74.8667 113.325C75.4 113.814 76.1167 114.086 77.0167 114.142L77.0167 110.475L79.0333 110.475L79.0333 116.709L72.25 116.709L72.25 114.692L73.75 114.692L73.75 114.292C73.3056 114.07 72.9056 113.686 72.55 113.142C72.1944 112.609 72.0167 111.831 72.0167 110.809Z" fill="#2B2B2B"/>
<path d="M54.25 -2.93959e-06L54.35 -2.93522e-06L67.25 3.91666L67.25 8.3L54.35 12.2333L54.25 12.2333L54.25 9.36666L65.0833 6.21666L65.0833 5.81666L54.25 2.63333L54.25 -2.93959e-06ZM57.5 3.25L59.6 3.83333L59.6 8.2L57.5 8.78333L57.5 3.25Z" fill="#2B2B2B"/>
<path d="M54.25 15.1333L67.25 15.1333L67.25 20.65C67.25 21.7611 67.0889 22.6611 66.7667 23.35C66.4556 24.05 66.0222 24.5611 65.4667 24.8833C64.9222 25.2167 64.2889 25.3833 63.5667 25.3833C62.7444 25.3833 62.0333 25.1667 61.4333 24.7333C60.8333 24.3 60.4056 23.6611 60.15 22.8167L54.35 25.7333L54.25 25.7333L54.25 22.7667L59.75 20.1167L59.75 17.9L54.25 17.9L54.25 15.1333ZM61.7833 17.9L61.7833 20.25C61.7833 20.9722 61.9056 21.5333 62.15 21.9333C62.3944 22.3444 62.8333 22.55 63.4667 22.55C64.1111 22.55 64.55 22.3444 64.7833 21.9333C65.0278 21.5222 65.15 20.9611 65.15 20.25L65.15 17.9L61.7833 17.9Z" fill="#2B2B2B"/>
<path d="M54.25 31.3768L65.05 31.3768L65.05 27.5268L67.25 27.5268L67.25 38.0268L65.05 38.0268L65.05 34.1768L54.25 34.1768L54.25 31.3768Z" fill="#2B2B2B"/>
<path d="M54.25 41.2974L67.25 41.2974L67.25 44.0974L54.25 44.0974L54.25 41.2974Z" fill="#2B2B2B"/>
<path d="M54 52.9128C54 51.9016 54.1333 51.0461 54.4 50.3461C54.6778 49.6572 55.0389 49.0961 55.4833 48.6628C55.9278 48.2405 56.4111 47.9239 56.9333 47.7128C57.4667 47.5128 57.9889 47.3961 58.5 47.3628L58.5 49.9628C58.1 49.985 57.7167 50.1072 57.35 50.3294C56.9833 50.5516 56.6833 50.885 56.45 51.3294C56.2167 51.7739 56.1 52.3294 56.1 52.9961C56.1 53.7183 56.2444 54.2516 56.5333 54.5961C56.8333 54.9516 57.2222 55.1294 57.7 55.1294C58.1556 55.1294 58.5278 54.9739 58.8167 54.6628C59.1056 54.3628 59.3333 53.9628 59.5 53.4628L60.1333 51.5794C60.3333 50.9794 60.5778 50.4016 60.8667 49.8461C61.1667 49.3016 61.5556 48.8516 62.0333 48.4961C62.5222 48.1405 63.1444 47.9628 63.9 47.9628C64.6778 47.9628 65.3333 48.1572 65.8667 48.5461C66.4 48.9461 66.8056 49.4905 67.0833 50.1794C67.3611 50.8794 67.5 51.6794 67.5 52.5794C67.5 53.735 67.3056 54.6461 66.9167 55.3128C66.5278 55.9794 66.0333 56.4628 65.4333 56.7628C64.8444 57.0739 64.2278 57.2628 63.5833 57.3294L63.5833 54.7294C63.8944 54.7072 64.1889 54.6183 64.4667 54.4628C64.7556 54.3183 64.9889 54.085 65.1667 53.7628C65.3444 53.4405 65.4333 53.0072 65.4333 52.4628C65.4333 51.8516 65.3056 51.3961 65.05 51.0961C64.7944 50.8072 64.4722 50.6628 64.0833 50.6628C63.6611 50.6628 63.3222 50.8128 63.0667 51.1128C62.8111 51.4239 62.5944 51.835 62.4167 52.3461L61.7833 54.2294C61.5833 54.8405 61.3333 55.4183 61.0333 55.9628C60.7333 56.5072 60.3333 56.9516 59.8333 57.2961C59.3444 57.6516 58.7 57.8294 57.9 57.8294C56.6889 57.8294 55.7333 57.3961 55.0333 56.5294C54.3444 55.6739 54 54.4683 54 52.9128Z" fill="#2B2B2B"/>
<path d="M54.25 63.201L65.05 63.201L65.05 59.351L67.25 59.351L67.25 69.851L65.05 69.851L65.05 66.001L54.25 66.001L54.25 63.201Z" fill="#2B2B2B"/>
<path d="M54.0167 82.6422C54.0167 81.6977 54.1833 80.8922 54.5167 80.2255C54.85 79.5589 55.2889 79.0477 55.8333 78.6922C56.3889 78.3366 56.9944 78.1588 57.65 78.1588C58.4722 78.1588 59.1611 78.4033 59.7167 78.8922C60.2722 79.3922 60.7222 80.0144 61.0667 80.7589L61.4667 80.7589C61.8 80.3811 62.1889 80.0589 62.6333 79.7922C63.0778 79.5366 63.6 79.4088 64.2 79.4088C64.7889 79.4088 65.3278 79.5477 65.8167 79.8255C66.3055 80.1144 66.7 80.5477 67 81.1255C67.3 81.7033 67.45 82.4366 67.45 83.3255C67.45 84.57 67.1778 85.5033 66.6333 86.1255C66.0889 86.7477 65.4111 87.0589 64.6 87.0589C64.0667 87.0589 63.6 86.9311 63.2 86.6755C62.8 86.42 62.4611 86.0811 62.1833 85.6588C61.9056 85.2477 61.6667 84.8033 61.4667 84.3255L61.0667 84.3255L59.4333 86.0422C59.3 86.1755 59.1667 86.2922 59.0333 86.3922C58.9 86.5033 58.7667 86.5977 58.6333 86.6755L58.6333 87.0755C59.0444 87.2422 59.4611 87.3755 59.8833 87.4755C60.3055 87.5755 60.7222 87.6477 61.1333 87.6922L61.1333 91.1089L59.2333 91.1089L59.2333 89.2255C58.9222 89.1366 58.6167 89.0144 58.3167 88.8589C58.0167 88.7144 57.7056 88.5366 57.3833 88.3255L54.35 91.4589L54.25 91.4589L54.25 88.1089L55.7167 86.7755L55.7167 86.3755C55.2389 85.9977 54.8333 85.5144 54.5 84.9255C54.1778 84.3477 54.0167 83.5866 54.0167 82.6422ZM56.0833 83.2089C56.0833 83.6866 56.1556 84.0977 56.3 84.4422C56.4556 84.7866 56.6722 85.0922 56.95 85.3589L60.1667 81.9922C59.9222 81.6144 59.6389 81.3033 59.3167 81.0589C59.0056 80.8144 58.6278 80.6922 58.1833 80.6922C57.5722 80.6922 57.0667 80.9255 56.6667 81.3922C56.2778 81.8589 56.0833 82.4644 56.0833 83.2089ZM62.4333 82.9255C62.6667 83.4144 62.9389 83.8311 63.25 84.1755C63.5611 84.52 63.95 84.6922 64.4167 84.6922C64.7833 84.6922 65.0833 84.5811 65.3167 84.3589C65.5611 84.1477 65.6833 83.8033 65.6833 83.3255C65.6833 82.8144 65.55 82.4366 65.2833 82.1922C65.0278 81.9589 64.7056 81.8422 64.3167 81.8422C63.9389 81.8422 63.5944 81.9477 63.2833 82.1588C62.9833 82.37 62.7 82.6255 62.4333 82.9255Z" fill="#A61210"/>
<path d="M54.25 99.9263L67.25 99.9263L67.25 102.726L56.45 102.726L56.45 108.16L54.25 108.16L54.25 99.9263Z" fill="#2B2B2B"/>
<path d="M54.0167 116.318C54.0167 114.941 54.2889 113.791 54.8333 112.868C55.3889 111.957 56.1722 111.274 57.1833 110.818C58.1944 110.374 59.3833 110.152 60.75 110.152C62.1278 110.152 63.3167 110.374 64.3167 110.818C65.3278 111.274 66.1056 111.957 66.65 112.868C67.2056 113.791 67.4833 114.941 67.4833 116.318C67.4833 117.707 67.2056 118.857 66.65 119.768C66.1056 120.68 65.3278 121.357 64.3167 121.802C63.3167 122.257 62.1278 122.485 60.75 122.485C59.3833 122.485 58.1944 122.257 57.1833 121.802C56.1722 121.357 55.3889 120.68 54.8333 119.768C54.2889 118.857 54.0167 117.707 54.0167 116.318ZM56.1167 116.318C56.1167 117.441 56.5167 118.263 57.3167 118.785C58.1278 119.318 59.2722 119.585 60.75 119.585C62.2389 119.585 63.3833 119.318 64.1833 118.785C64.9833 118.263 65.3833 117.441 65.3833 116.318C65.3833 115.196 64.9833 114.368 64.1833 113.835C63.3833 113.313 62.2389 113.052 60.75 113.052C59.2722 113.052 58.1278 113.313 57.3167 113.835C56.5167 114.368 56.1167 115.196 56.1167 116.318Z" fill="#2B2B2B"/>
<path d="M54.0167 131.158C54.0167 129.781 54.2889 128.631 54.8333 127.708C55.3889 126.797 56.1722 126.114 57.1833 125.658C58.1944 125.214 59.3833 124.992 60.75 124.992C62.1278 124.992 63.3167 125.214 64.3167 125.658C65.3278 126.114 66.1056 126.797 66.65 127.708C67.2056 128.631 67.4833 129.781 67.4833 131.158C67.4833 132.547 67.2056 133.697 66.65 134.608C66.1056 135.519 65.3278 136.197 64.3167 136.642C63.3167 137.097 62.1278 137.325 60.75 137.325C59.3833 137.325 58.1944 137.097 57.1833 136.642C56.1722 136.197 55.3889 135.519 54.8333 134.608C54.2889 133.697 54.0167 132.547 54.0167 131.158ZM56.1167 131.158C56.1167 132.281 56.5167 133.103 57.3167 133.625C58.1278 134.158 59.2722 134.425 60.75 134.425C62.2389 134.425 63.3833 134.158 64.1833 133.625C64.9833 133.103 65.3833 132.281 65.3833 131.158C65.3833 130.036 64.9833 129.208 64.1833 128.675C63.3833 128.153 62.2389 127.892 60.75 127.892C59.2722 127.892 58.1278 128.153 57.3167 128.675C56.5167 129.208 56.1167 130.036 56.1167 131.158Z" fill="#2B2B2B"/>
<path d="M54.25 140.598L67.25 140.598L67.25 143.332L62.25 143.332L62.25 144.332L67.25 148.065L67.25 151.165L67.15 151.165L61.2833 146.665L54.35 151.898L54.25 151.898L54.25 148.565L60.05 144.332L60.05 143.332L54.25 143.332L54.25 140.598Z" fill="#2B2B2B"/>
<path d="M36.25 1.13333L49.25 1.13333L49.25 5.76666C49.25 8.07777 48.6778 9.75555 47.5333 10.8C46.4 11.8444 44.8056 12.3667 42.75 12.3667C40.6944 12.3667 39.0944 11.8444 37.95 10.8C36.8167 9.75555 36.25 8.07777 36.25 5.76666L36.25 1.13333ZM38.4167 3.93333L38.4167 5.6C38.4167 6.45555 38.5444 7.16666 38.8 7.73333C39.0667 8.31111 39.5111 8.74444 40.1333 9.03333C40.7667 9.32222 41.6389 9.46666 42.75 9.46666C43.8611 9.46666 44.7278 9.32222 45.35 9.03333C45.9833 8.74444 46.4278 8.31111 46.6833 7.73333C46.95 7.16666 47.0833 6.45555 47.0833 5.6L47.0833 3.93333L38.4167 3.93333Z" fill="#2B2B2B"/>
<path d="M36.25 15.6411L49.25 15.6411L49.25 24.5078L47.05 24.5078L47.05 18.4078L44.1833 18.4078L44.1833 23.1078L42.15 23.1078L42.15 18.4078L38.45 18.4078L38.45 24.6078L36.25 24.6078L36.25 15.6411Z" fill="#2B2B2B"/>
<path d="M36.25 30.9206L49.15 27.0039L49.25 27.0039L49.25 29.8372L38.65 33.0039L38.65 33.4039L49.25 36.5372L49.25 39.2372L49.15 39.2372L36.25 35.3206L36.25 30.9206Z" fill="#2B2B2B"/>
<path d="M36.25 42.1372L49.25 42.1372L49.25 51.0039L47.05 51.0039L47.05 44.9039L44.1833 44.9039L44.1833 49.6039L42.15 49.6039L42.15 44.9039L38.45 44.9039L38.45 51.1039L36.25 51.1039L36.25 42.1372Z" fill="#2B2B2B"/>
<path d="M36.25 54.6333L49.25 54.6333L49.25 57.4333L38.45 57.4333L38.45 62.8667L36.25 62.8667L36.25 54.6333Z" fill="#2B2B2B"/>
<path d="M36.0167 71.0255C36.0167 69.6477 36.2889 68.4977 36.8333 67.5755C37.3889 66.6644 38.1722 65.9811 39.1833 65.5255C40.1944 65.0811 41.3833 64.8589 42.75 64.8589C44.1278 64.8589 45.3167 65.0811 46.3167 65.5255C47.3278 65.9811 48.1056 66.6644 48.65 67.5755C49.2056 68.4977 49.4833 69.6477 49.4833 71.0255C49.4833 72.4144 49.2056 73.5644 48.65 74.4755C48.1056 75.3866 47.3278 76.0644 46.3167 76.5089C45.3167 76.9644 44.1278 77.1922 42.75 77.1922C41.3833 77.1922 40.1944 76.9644 39.1833 76.5089C38.1722 76.0644 37.3889 75.3866 36.8333 74.4755C36.2889 73.5644 36.0167 72.4144 36.0167 71.0255ZM38.1167 71.0255C38.1167 72.1477 38.5167 72.97 39.3167 73.4922C40.1278 74.0255 41.2722 74.2922 42.75 74.2922C44.2389 74.2922 45.3833 74.0255 46.1833 73.4922C46.9833 72.97 47.3833 72.1477 47.3833 71.0255C47.3833 69.9033 46.9833 69.0755 46.1833 68.5422C45.3833 68.02 44.2389 67.7589 42.75 67.7589C41.2722 67.7589 40.1278 68.02 39.3167 68.5422C38.5167 69.0755 38.1167 69.9033 38.1167 71.0255Z" fill="#2B2B2B"/>
<path d="M36.25 80.4654L49.25 80.4654L49.25 85.8987C49.25 87.5654 48.8944 88.782 48.1833 89.5487C47.4833 90.3154 46.5389 90.6987 45.35 90.6987C44.1611 90.6987 43.2111 90.3154 42.5 89.5487C41.7889 88.7931 41.4333 87.5765 41.4333 85.8987L41.4333 83.232L36.25 83.232L36.25 80.4654ZM43.5333 83.232L43.5333 85.482C43.5333 86.2376 43.6611 86.8265 43.9167 87.2487C44.1833 87.682 44.6556 87.8987 45.3333 87.8987C46 87.8987 46.4667 87.682 46.7333 87.2487C47.0111 86.8265 47.15 86.2376 47.15 85.482L47.15 83.232L43.5333 83.232Z" fill="#2B2B2B"/>
<path d="M36.25 93.9575L49.25 93.9575L49.25 98.8909L38.45 101.308L38.45 101.908L49.25 104.324L49.25 109.258L36.25 109.258L36.25 106.658L46.95 106.658L46.95 106.224L36.25 103.858L36.25 99.2242L46.95 96.8575L46.95 96.4242L36.25 96.4242L36.25 93.9575Z" fill="#2B2B2B"/>
<path d="M36.25 113.29L49.25 113.29L49.25 122.156L47.05 122.156L47.05 116.056L44.1833 116.056L44.1833 120.756L42.15 120.756L42.15 116.056L38.45 116.056L38.45 122.256L36.25 122.256L36.25 113.29Z" fill="#2B2B2B"/>
<path d="M36.25 125.786L49.25 125.786L49.25 130.619L38.45 134.652L38.45 135.052L49.25 135.052L49.25 137.586L36.25 137.586L36.25 132.719L47.05 128.702L47.05 128.319L36.25 128.319L36.25 125.786Z" fill="#2B2B2B"/>
<path d="M36.25 144.705L47.05 144.705L47.05 140.855L49.25 140.855L49.25 151.355L47.05 151.355L47.05 147.505L36.25 147.505L36.25 144.705Z" fill="#2B2B2B"/>
<path d="M18.0167 5.15C18.0167 4.20555 18.1833 3.4 18.5167 2.73333C18.85 2.06666 19.2889 1.55555 19.8333 1.2C20.3889 0.84444 20.9944 0.666662 21.65 0.666662C22.4722 0.666662 23.1611 0.911107 23.7167 1.4C24.2722 1.9 24.7222 2.52222 25.0667 3.26666L25.4667 3.26666C25.8 2.88888 26.1889 2.56666 26.6333 2.3C27.0778 2.04444 27.6 1.91666 28.2 1.91666C28.7889 1.91666 29.3278 2.05555 29.8167 2.33333C30.3056 2.62222 30.7 3.05555 31 3.63333C31.3 4.21111 31.45 4.94444 31.45 5.83333C31.45 7.07777 31.1778 8.01111 30.6333 8.63333C30.0889 9.25555 29.4111 9.56666 28.6 9.56666C28.0667 9.56666 27.6 9.43889 27.2 9.18333C26.8 8.92777 26.4611 8.58888 26.1833 8.16666C25.9056 7.75555 25.6667 7.31111 25.4667 6.83333L25.0667 6.83333L23.4333 8.55C23.3 8.68333 23.1667 8.8 23.0333 8.9C22.9 9.01111 22.7667 9.10555 22.6333 9.18333L22.6333 9.58333C23.0444 9.75 23.4611 9.88333 23.8833 9.98333C24.3056 10.0833 24.7222 10.1556 25.1333 10.2L25.1333 13.6167L23.2333 13.6167L23.2333 11.7333C22.9222 11.6444 22.6167 11.5222 22.3167 11.3667C22.0167 11.2222 21.7056 11.0444 21.3833 10.8333L18.35 13.9667L18.25 13.9667L18.25 10.6167L19.7167 9.28333L19.7167 8.88333C19.2389 8.50555 18.8333 8.02222 18.5 7.43333C18.1778 6.85555 18.0167 6.09444 18.0167 5.15ZM20.0833 5.71666C20.0833 6.19444 20.1556 6.60555 20.3 6.95C20.4556 7.29444 20.6722 7.6 20.95 7.86666L24.1667 4.5C23.9222 4.12222 23.6389 3.81111 23.3167 3.56666C23.0056 3.32222 22.6278 3.2 22.1833 3.2C21.5722 3.2 21.0667 3.43333 20.6667 3.9C20.2778 4.36666 20.0833 4.97222 20.0833 5.71666ZM26.4333 5.43333C26.6667 5.92222 26.9389 6.33888 27.25 6.68333C27.5611 7.02777 27.95 7.2 28.4167 7.2C28.7833 7.2 29.0833 7.08888 29.3167 6.86666C29.5611 6.65555 29.6833 6.31111 29.6833 5.83333C29.6833 5.32222 29.55 4.94444 29.2833 4.7C29.0278 4.46666 28.7056 4.35 28.3167 4.35C27.9389 4.35 27.5944 4.45555 27.2833 4.66666C26.9833 4.87777 26.7 5.13333 26.4333 5.43333Z" fill="#A61210"/>
<path d="M18.25 21.3008L18.35 21.3008L31.25 25.2174L31.25 29.6008L18.35 33.5341L18.25 33.5341L18.25 30.6674L29.0833 27.5174L29.0833 27.1174L18.25 23.9341L18.25 21.3008ZM21.5 24.5508L23.6 25.1341L23.6 29.5008L21.5 30.0841L21.5 24.5508Z" fill="#2B2B2B"/>
<path d="M18.25 36.4341L31.25 36.4341L31.25 41.9508C31.25 43.0619 31.0889 43.9619 30.7667 44.6508C30.4555 45.3508 30.0222 45.8619 29.4667 46.1841C28.9222 46.5174 28.2889 46.6841 27.5667 46.6841C26.7444 46.6841 26.0333 46.4674 25.4333 46.0341C24.8333 45.6008 24.4056 44.9619 24.15 44.1174L18.35 47.0341L18.25 47.0341L18.25 44.0674L23.75 41.4174L23.75 39.2008L18.25 39.2008L18.25 36.4341ZM25.7833 39.2008L25.7833 41.5508C25.7833 42.273 25.9056 42.8341 26.15 43.2341C26.3944 43.6452 26.8333 43.8508 27.4667 43.8508C28.1111 43.8508 28.55 43.6452 28.7833 43.2341C29.0278 42.823 29.15 42.2619 29.15 41.5508L29.15 39.2008L25.7833 39.2008Z" fill="#2B2B2B"/>
<path d="M18.25 52.6776L29.05 52.6776L29.05 48.8276L31.25 48.8276L31.25 59.3276L29.05 59.3276L29.05 55.4776L18.25 55.4776L18.25 52.6776Z" fill="#2B2B2B"/>
<path d="M0.25 1.13333L13.25 1.13333L13.25 5.76666C13.25 8.07777 12.6778 9.75555 11.5333 10.8C10.4 11.8444 8.80556 12.3667 6.75 12.3667C4.69444 12.3667 3.09444 11.8444 1.95 10.8C0.816665 9.75555 0.25 8.07777 0.25 5.76666L0.25 1.13333ZM2.41666 3.93333L2.41666 5.59999C2.41666 6.45555 2.54445 7.16666 2.8 7.73333C3.06667 8.31111 3.51111 8.74444 4.13333 9.03333C4.76666 9.32222 5.63889 9.46666 6.75 9.46666C7.86111 9.46666 8.72778 9.32222 9.35 9.03333C9.98333 8.74444 10.4278 8.31111 10.6833 7.73333C10.95 7.16666 11.0833 6.45555 11.0833 5.6L11.0833 3.93333L2.41666 3.93333Z" fill="#2B2B2B"/>
<path d="M0.249999 15.6411L13.25 15.6411L13.25 18.4411L0.249999 18.4411L0.249999 15.6411Z" fill="#2B2B2B"/>
<path d="M0.249999 22.4732L13.25 22.4732L13.25 27.9898C13.25 29.1009 13.0889 30.001 12.7667 30.6898C12.4555 31.3898 12.0222 31.901 11.4667 32.2232C10.9222 32.5565 10.2889 32.7232 9.56666 32.7232C8.74444 32.7232 8.03333 32.5065 7.43333 32.0732C6.83333 31.6398 6.40555 31.001 6.15 30.1565L0.349997 33.0732L0.249999 33.0732L0.249999 30.1065L5.75 27.4565L5.75 25.2398L0.249999 25.2398L0.249999 22.4732ZM7.78333 25.2398L7.78333 27.5898C7.78333 28.3121 7.90555 28.8732 8.15 29.2732C8.39445 29.6843 8.83333 29.8898 9.46667 29.8898C10.1111 29.8898 10.55 29.6843 10.7833 29.2732C11.0278 28.8621 11.15 28.3009 11.15 27.5898L11.15 25.2398L7.78333 25.2398Z" fill="#2B2B2B"/>
<path d="M0.249998 36.1411L13.25 36.1411L13.25 45.0078L11.05 45.0078L11.05 38.9078L8.18333 38.9078L8.18333 43.6078L6.15 43.6078L6.15 38.9078L2.45 38.9078L2.44999 45.1078L0.249998 45.1078L0.249998 36.1411Z" fill="#2B2B2B"/>
<path d="M-2.33806e-06 53.4885C-2.25549e-06 51.5996 0.594442 50.133 1.78333 49.0885C2.97222 48.0552 4.62778 47.5385 6.75 47.5385C8.85 47.5385 10.5 48.0497 11.7 49.0719C12.9 50.0941 13.5 51.5608 13.5 53.4719C13.5 54.6163 13.2833 55.5941 12.85 56.4052C12.4278 57.2163 11.8389 57.8497 11.0833 58.3052C10.3278 58.7608 9.4611 59.0274 8.48333 59.1052L8.48333 56.3219C9.39444 56.233 10.1056 55.9385 10.6167 55.4385C11.1389 54.9385 11.4 54.2885 11.4 53.4885C11.4 52.4774 10.9944 51.7163 10.1833 51.2052C9.37222 50.6941 8.22222 50.4385 6.73333 50.4385C5.18889 50.4385 4.02778 50.6996 3.25 51.2219C2.48333 51.7552 2.1 52.5052 2.1 53.4719C2.1 54.3052 2.36667 54.9663 2.9 55.4552C3.43333 55.9552 4.13888 56.2441 5.01666 56.3219L5.01666 59.1052C4.03888 59.0274 3.17222 58.7608 2.41666 58.3052C1.66111 57.8496 1.06666 57.2163 0.633329 56.4052C0.211103 55.6052 -2.38808e-06 54.633 -2.33806e-06 53.4885Z" fill="#2B2B2B"/>
<path d="M0.249997 64.8807L11.05 64.8807L11.05 61.0307L13.25 61.0307L13.25 71.5307L11.05 71.5307L11.05 67.6807L0.249997 67.6807L0.249997 64.8807Z" fill="#2B2B2B"/>
<path d="M0.249997 74.8013L13.25 74.8013L13.25 77.6013L0.249997 77.6013L0.249997 74.8013Z" fill="#2B2B2B"/>
<path d="M0.0166588 87.0333C0.0166589 85.6556 0.288891 84.5055 0.833332 83.5833C1.38889 82.6722 2.17222 81.9889 3.18333 81.5333C4.19444 81.0889 5.38333 80.8667 6.75 80.8667C8.12777 80.8667 9.31666 81.0889 10.3167 81.5333C11.3278 81.9889 12.1056 82.6722 12.65 83.5833C13.2056 84.5055 13.4833 85.6556 13.4833 87.0333C13.4833 88.4222 13.2056 89.5722 12.65 90.4833C12.1056 91.3944 11.3278 92.0722 10.3167 92.5167C9.31666 92.9722 8.12777 93.2 6.75 93.2C5.38333 93.2 4.19444 92.9722 3.18333 92.5167C2.17222 92.0722 1.38889 91.3944 0.833332 90.4833C0.288891 89.5722 0.0166587 88.4222 0.0166588 87.0333ZM2.11666 87.0333C2.11666 88.1556 2.51666 88.9778 3.31666 89.5C4.12777 90.0333 5.27222 90.3 6.75 90.3C8.23889 90.3 9.38333 90.0333 10.1833 89.5C10.9833 88.9778 11.3833 88.1556 11.3833 87.0333C11.3833 85.9111 10.9833 85.0833 10.1833 84.55C9.38333 84.0278 8.23889 83.7667 6.75 83.7667C5.27222 83.7667 4.12777 84.0278 3.31666 84.55C2.51666 85.0833 2.11666 85.9111 2.11666 87.0333Z" fill="#2B2B2B"/>
<path d="M0.249996 96.4732L13.25 96.4732L13.25 101.307L2.44999 105.34L2.44999 105.74L13.25 105.74L13.25 108.273L0.249995 108.273L0.249995 103.407L11.05 99.3898L11.05 99.0065L0.249996 99.0065L0.249996 96.4732Z" fill="#2B2B2B"/>
</svg>
