<svg width="153" height="122" viewBox="0 0 153 122" fill="none" xmlns="http://www.w3.org/2000/svg">
<path d="M1.13333 13.25V0.25H9.7V2.45H3.9V5.4H8.3V7.43333H3.9V13.25H1.13333Z" fill="#2B2B2B"/>
<path d="M12.9654 13.25V0.25H18.482C19.5931 0.25 20.4931 0.411111 21.182 0.733334C21.882 1.04444 22.3931 1.47778 22.7154 2.03333C23.0487 2.57778 23.2154 3.21111 23.2154 3.93333C23.2154 4.75556 22.9987 5.46667 22.5654 6.06667C22.132 6.66667 21.4931 7.09445 20.6487 7.35L23.5654 13.15V13.25H20.5987L17.9487 7.75H15.732V13.25H12.9654ZM15.732 5.71667H18.082C18.8043 5.71667 19.3654 5.59444 19.7654 5.35C20.1765 5.10556 20.382 4.66667 20.382 4.03333C20.382 3.38889 20.1765 2.95 19.7654 2.71667C19.3543 2.47222 18.7931 2.35 18.082 2.35H15.732V5.71667Z" fill="#2B2B2B"/>
<path d="M26.6333 13.25V0.25H35.5V2.45H29.4V5.31667H34.1V7.35H29.4V11.05H35.6V13.25H26.6333Z" fill="#2B2B2B"/>
<path d="M39.1294 13.25V0.25H47.9961V2.45H41.8961V5.31667H46.5961V7.35H41.8961V11.05H48.0961V13.25H39.1294Z" fill="#2B2B2B"/>
<path d="M51.6255 13.25V0.25H54.4255V11.05H59.8589V13.25H51.6255Z" fill="#2B2B2B"/>
<path d="M61.9922 13.25V13.15L65.9089 0.25H70.2922L74.2255 13.15V13.25H71.3589L68.2089 2.41667H67.8089L64.6255 13.25H61.9922ZM65.2422 10L65.8255 7.9H70.1922L70.7755 10H65.2422Z" fill="#2B2B2B"/>
<path d="M77.1255 13.25V0.25H81.9589L85.9922 11.05H86.3922V0.25H88.9255V13.25H84.0589L80.0422 2.45H79.6589V13.25H77.1255Z" fill="#2B2B2B"/>
<path d="M98.1448 13.5C96.2559 13.5 94.7892 12.9056 93.7448 11.7167C92.7115 10.5278 92.1948 8.87222 92.1948 6.75C92.1948 4.65 92.7059 3 93.7281 1.8C94.7503 0.6 96.217 0 98.1281 0C99.2726 0 100.25 0.216667 101.061 0.650001C101.873 1.07222 102.506 1.66111 102.961 2.41667C103.417 3.17222 103.684 4.03889 103.761 5.01667H100.978C100.889 4.10556 100.595 3.39444 100.095 2.88333C99.5948 2.36111 98.9448 2.1 98.1448 2.1C97.1337 2.1 96.3726 2.50556 95.8615 3.31667C95.3503 4.12778 95.0948 5.27778 95.0948 6.76667C95.0948 8.31111 95.3559 9.47222 95.8781 10.25C96.4115 11.0167 97.1615 11.4 98.1281 11.4C98.9615 11.4 99.6226 11.1333 100.111 10.6C100.611 10.0667 100.9 9.36111 100.978 8.48333H103.761C103.684 9.46111 103.417 10.3278 102.961 11.0833C102.506 11.8389 101.873 12.4333 101.061 12.8667C100.261 13.2889 99.2892 13.5 98.1448 13.5Z" fill="#2B2B2B"/>
<path d="M106.629 13.25V0.25H115.496V2.45H109.396V5.31667H114.096V7.35H109.396V11.05H115.596V13.25H106.629Z" fill="#2B2B2B"/>
<path d="M1.13333 31.25V18.25H10V20.45H3.9V23.3167H8.6V25.35H3.9V29.05H10.1V31.25H1.13333Z" fill="#2B2B2B"/>
<path d="M13.6294 31.25V18.25H18.4628L22.4961 29.05H22.8961V18.25H25.4294V31.25H20.5628L16.5461 20.45H16.1628V31.25H13.6294Z" fill="#2B2B2B"/>
<path d="M32.2487 31.25L28.332 18.35V18.25H31.1654L34.332 28.85H34.732L37.8654 18.25H40.5654V18.35L36.6487 31.25H32.2487Z" fill="#2B2B2B"/>
<path d="M43.4654 31.25V18.25H46.2654V31.25H43.4654Z" fill="#2B2B2B"/>
<path d="M50.2974 31.25V18.25H55.8141C56.9252 18.25 57.8252 18.4111 58.5141 18.7333C59.2141 19.0444 59.7252 19.4778 60.0474 20.0333C60.3807 20.5778 60.5474 21.2111 60.5474 21.9333C60.5474 22.7556 60.3307 23.4667 59.8974 24.0667C59.4641 24.6667 58.8252 25.0944 57.9807 25.35L60.8974 31.15V31.25H57.9307L55.2807 25.75H53.0641V31.25H50.2974ZM53.0641 23.7167H55.4141C56.1363 23.7167 56.6974 23.5944 57.0974 23.35C57.5085 23.1056 57.7141 22.6667 57.7141 22.0333C57.7141 21.3889 57.5085 20.95 57.0974 20.7167C56.6863 20.4722 56.1252 20.35 55.4141 20.35H53.0641V23.7167Z" fill="#2B2B2B"/>
<path d="M69.3654 31.4833C67.9876 31.4833 66.8376 31.2111 65.9154 30.6667C65.0043 30.1111 64.3209 29.3278 63.8654 28.3167C63.4209 27.3056 63.1987 26.1167 63.1987 24.75C63.1987 23.3722 63.4209 22.1833 63.8654 21.1833C64.3209 20.1722 65.0043 19.3944 65.9154 18.85C66.8376 18.2944 67.9876 18.0167 69.3654 18.0167C70.7543 18.0167 71.9042 18.2944 72.8154 18.85C73.7265 19.3944 74.4043 20.1722 74.8487 21.1833C75.3043 22.1833 75.532 23.3722 75.532 24.75C75.532 26.1167 75.3043 27.3056 74.8487 28.3167C74.4043 29.3278 73.7265 30.1111 72.8154 30.6667C71.9042 31.2111 70.7543 31.4833 69.3654 31.4833ZM69.3654 29.3833C70.4876 29.3833 71.3098 28.9833 71.832 28.1833C72.3654 27.3722 72.632 26.2278 72.632 24.75C72.632 23.2611 72.3654 22.1167 71.832 21.3167C71.3098 20.5167 70.4876 20.1167 69.3654 20.1167C68.2431 20.1167 67.4154 20.5167 66.882 21.3167C66.3598 22.1167 66.0987 23.2611 66.0987 24.75C66.0987 26.2278 66.3598 27.3722 66.882 28.1833C67.4154 28.9833 68.2431 29.3833 69.3654 29.3833Z" fill="#2B2B2B"/>
<path d="M78.8052 31.25V18.25H83.6385L87.6719 29.05H88.0719V18.25H90.6052V31.25H85.7385L81.7219 20.45H81.3385V31.25H78.8052Z" fill="#2B2B2B"/>
<path d="M94.6411 31.25V18.25H99.5745L101.991 29.05H102.591L105.008 18.25H109.941V31.25H107.341V20.55H106.908L104.541 31.25H99.9078L97.5411 20.55H97.1078V31.25H94.6411Z" fill="#2B2B2B"/>
<path d="M113.973 31.25V18.25H122.84V20.45H116.74V23.3167H121.44V25.35H116.74V29.05H122.94V31.25H113.973Z" fill="#2B2B2B"/>
<path d="M126.469 31.25V18.25H131.303L135.336 29.05H135.736V18.25H138.269V31.25H133.403L129.386 20.45H129.003V31.25H126.469Z" fill="#2B2B2B"/>
<path d="M145.389 31.25V20.45H141.539V18.25H152.039V20.45H148.189V31.25H145.389Z" fill="#2B2B2B"/>
<path d="M5.15 49.4833C4.20556 49.4833 3.4 49.3167 2.73333 48.9833C2.06667 48.65 1.55556 48.2111 1.2 47.6667C0.844444 47.1111 0.666667 46.5056 0.666667 45.85C0.666667 45.0278 0.911111 44.3389 1.4 43.7833C1.9 43.2278 2.52222 42.7778 3.26667 42.4333V42.0333C2.88889 41.7 2.56667 41.3111 2.3 40.8667C2.04444 40.4222 1.91667 39.9 1.91667 39.3C1.91667 38.7111 2.05556 38.1722 2.33333 37.6833C2.62222 37.1944 3.05556 36.8 3.63333 36.5C4.21111 36.2 4.94444 36.05 5.83333 36.05C7.07778 36.05 8.01111 36.3222 8.63333 36.8667C9.25556 37.4111 9.56667 38.0889 9.56667 38.9C9.56667 39.4333 9.43889 39.9 9.18333 40.3C8.92778 40.7 8.58889 41.0389 8.16667 41.3167C7.75556 41.5944 7.31111 41.8333 6.83333 42.0333V42.4333L8.55 44.0667C8.68333 44.2 8.8 44.3333 8.9 44.4667C9.01111 44.6 9.10556 44.7333 9.18333 44.8667H9.58333C9.75 44.4556 9.88333 44.0389 9.98333 43.6167C10.0833 43.1944 10.1556 42.7778 10.2 42.3667H13.6167V44.2667H11.7333C11.6444 44.5778 11.5222 44.8833 11.3667 45.1833C11.2222 45.4833 11.0444 45.7944 10.8333 46.1167L13.9667 49.15V49.25H10.6167L9.28333 47.7833H8.88333C8.50556 48.2611 8.02222 48.6667 7.43333 49C6.85556 49.3222 6.09444 49.4833 5.15 49.4833ZM5.71667 47.4167C6.19444 47.4167 6.60556 47.3444 6.95 47.2C7.29444 47.0444 7.6 46.8278 7.86667 46.55L4.5 43.3333C4.12222 43.5778 3.81111 43.8611 3.56667 44.1833C3.32222 44.4944 3.2 44.8722 3.2 45.3167C3.2 45.9278 3.43333 46.4333 3.9 46.8333C4.36667 47.2222 4.97222 47.4167 5.71667 47.4167ZM5.43333 41.0667C5.92222 40.8333 6.33889 40.5611 6.68333 40.25C7.02778 39.9389 7.2 39.55 7.2 39.0833C7.2 38.7167 7.08889 38.4167 6.86667 38.1833C6.65556 37.9389 6.31111 37.8167 5.83333 37.8167C5.32222 37.8167 4.94444 37.95 4.7 38.2167C4.46667 38.4722 4.35 38.7944 4.35 39.1833C4.35 39.5611 4.45556 39.9056 4.66667 40.2167C4.87778 40.5167 5.13333 40.8 5.43333 41.0667Z" fill="#A61210"/>
<path d="M22.4341 49.25V36.25H25.2341V47.05H30.6674V49.25H22.4341Z" fill="#2B2B2B"/>
<path d="M33.9341 49.25V36.25H36.7341V49.25H33.9341Z" fill="#2B2B2B"/>
<path d="M45.6328 49.4833C44.4439 49.4833 43.4273 49.2056 42.5828 48.65C41.7495 48.0833 41.1106 47.2944 40.6661 46.2833C40.2217 45.2611 39.9995 44.0722 39.9995 42.7167C39.9995 41.3389 40.2273 40.15 40.6828 39.15C41.1495 38.15 41.8273 37.3778 42.7161 36.8333C43.6161 36.2889 44.7217 36.0167 46.0328 36.0167C47.1661 36.0167 48.1161 36.2111 48.8828 36.6C49.6495 36.9889 50.2495 37.5278 50.6828 38.2167C51.1161 38.8944 51.3939 39.6833 51.5161 40.5833H48.8495C48.7161 39.7833 48.4106 39.1722 47.9328 38.75C47.455 38.3278 46.8106 38.1167 45.9995 38.1167C44.9217 38.1167 44.1161 38.5222 43.5828 39.3333C43.0606 40.1333 42.7995 41.2667 42.7995 42.7333C42.7995 44.2333 43.0717 45.3889 43.6161 46.2C44.1717 47.0111 44.9884 47.4167 46.0661 47.4167C46.9661 47.4167 47.6606 47.1556 48.1495 46.6333C48.6384 46.1 48.9106 45.3833 48.9661 44.4833H45.2995V42.4667H51.5328V49.25H49.5161V47.75H49.1161C48.8939 48.1944 48.5106 48.5944 47.9661 48.95C47.4328 49.3056 46.655 49.4833 45.6328 49.4833Z" fill="#2B2B2B"/>
<path d="M55.0982 49.25V36.25H57.8982V41.2H63.4315V36.25H66.2315V49.25H63.4315V43.4667H57.8982V49.25H55.0982Z" fill="#2B2B2B"/>
<path d="M73.3534 49.25V38.45H69.5034V36.25H80.0034V38.45H76.1534V49.25H73.3534Z" fill="#2B2B2B"/>
<path d="M83.274 49.25V36.25H86.074V49.25H83.274Z" fill="#2B2B2B"/>
<path d="M90.106 49.25V36.25H94.9393L98.9727 47.05H99.3727V36.25H101.906V49.25H97.0393L93.0227 38.45H92.6393V49.25H90.106Z" fill="#2B2B2B"/>
<path d="M110.809 49.4833C109.62 49.4833 108.603 49.2056 107.759 48.65C106.925 48.0833 106.286 47.2944 105.842 46.2833C105.397 45.2611 105.175 44.0722 105.175 42.7167C105.175 41.3389 105.403 40.15 105.859 39.15C106.325 38.15 107.003 37.3778 107.892 36.8333C108.792 36.2889 109.897 36.0167 111.209 36.0167C112.342 36.0167 113.292 36.2111 114.059 36.6C114.825 36.9889 115.425 37.5278 115.859 38.2167C116.292 38.8944 116.57 39.6833 116.692 40.5833H114.025C113.892 39.7833 113.586 39.1722 113.109 38.75C112.631 38.3278 111.986 38.1167 111.175 38.1167C110.097 38.1167 109.292 38.5222 108.759 39.3333C108.236 40.1333 107.975 41.2667 107.975 42.7333C107.975 44.2333 108.247 45.3889 108.792 46.2C109.347 47.0111 110.164 47.4167 111.242 47.4167C112.142 47.4167 112.836 47.1556 113.325 46.6333C113.814 46.1 114.086 45.3833 114.142 44.4833H110.475V42.4667H116.709V49.25H114.692V47.75H114.292C114.07 48.1944 113.686 48.5944 113.142 48.95C112.609 49.3056 111.831 49.4833 110.809 49.4833Z" fill="#2B2B2B"/>
<path d="M0 67.25V67.15L3.91667 54.25H8.3L12.2333 67.15V67.25H9.36667L6.21667 56.4167H5.81667L2.63333 67.25H0ZM3.25 64L3.83333 61.9H8.2L8.78333 64H3.25Z" fill="#2B2B2B"/>
<path d="M15.1333 67.25V54.25H20.65C21.7611 54.25 22.6611 54.4111 23.35 54.7333C24.05 55.0444 24.5611 55.4778 24.8833 56.0333C25.2167 56.5778 25.3833 57.2111 25.3833 57.9333C25.3833 58.7556 25.1667 59.4667 24.7333 60.0667C24.3 60.6667 23.6611 61.0944 22.8167 61.35L25.7333 67.15V67.25H22.7667L20.1167 61.75H17.9V67.25H15.1333ZM17.9 59.7167H20.25C20.9722 59.7167 21.5333 59.5944 21.9333 59.35C22.3444 59.1056 22.55 58.6667 22.55 58.0333C22.55 57.3889 22.3444 56.95 21.9333 56.7167C21.5222 56.4722 20.9611 56.35 20.25 56.35H17.9V59.7167Z" fill="#2B2B2B"/>
<path d="M31.3768 67.25V56.45H27.5268V54.25H38.0268V56.45H34.1768V67.25H31.3768Z" fill="#2B2B2B"/>
<path d="M41.2974 67.25V54.25H44.0974V67.25H41.2974Z" fill="#2B2B2B"/>
<path d="M52.9128 67.5C51.9017 67.5 51.0461 67.3667 50.3461 67.1C49.6572 66.8222 49.0961 66.4611 48.6628 66.0167C48.2405 65.5722 47.9239 65.0889 47.7128 64.5667C47.5128 64.0333 47.3961 63.5111 47.3628 63H49.9628C49.985 63.4 50.1072 63.7833 50.3294 64.15C50.5516 64.5167 50.885 64.8167 51.3294 65.05C51.7739 65.2833 52.3294 65.4 52.9961 65.4C53.7183 65.4 54.2516 65.2556 54.5961 64.9667C54.9516 64.6667 55.1294 64.2778 55.1294 63.8C55.1294 63.3444 54.9739 62.9722 54.6628 62.6833C54.3628 62.3944 53.9628 62.1667 53.4628 62L51.5794 61.3667C50.9794 61.1667 50.4016 60.9222 49.8461 60.6333C49.3016 60.3333 48.8516 59.9444 48.4961 59.4667C48.1405 58.9778 47.9628 58.3556 47.9628 57.6C47.9628 56.8222 48.1572 56.1667 48.5461 55.6333C48.9461 55.1 49.4905 54.6944 50.1794 54.4167C50.8794 54.1389 51.6794 54 52.5794 54C53.735 54 54.6461 54.1944 55.3128 54.5833C55.9794 54.9722 56.4628 55.4667 56.7628 56.0667C57.0739 56.6556 57.2628 57.2722 57.3294 57.9167H54.7294C54.7072 57.6056 54.6183 57.3111 54.4628 57.0333C54.3183 56.7444 54.085 56.5111 53.7628 56.3333C53.4405 56.1556 53.0072 56.0667 52.4628 56.0667C51.8516 56.0667 51.3961 56.1944 51.0961 56.45C50.8072 56.7056 50.6628 57.0278 50.6628 57.4167C50.6628 57.8389 50.8128 58.1778 51.1128 58.4333C51.4239 58.6889 51.835 58.9056 52.3461 59.0833L54.2294 59.7167C54.8405 59.9167 55.4183 60.1667 55.9628 60.4667C56.5072 60.7667 56.9516 61.1667 57.2961 61.6667C57.6516 62.1556 57.8294 62.8 57.8294 63.6C57.8294 64.8111 57.3961 65.7667 56.5294 66.4667C55.6739 67.1556 54.4683 67.5 52.9128 67.5Z" fill="#2B2B2B"/>
<path d="M63.201 67.25V56.45H59.351V54.25H69.851V56.45H66.001V67.25H63.201Z" fill="#2B2B2B"/>
<path d="M82.6422 67.4833C81.6977 67.4833 80.8922 67.3167 80.2255 66.9833C79.5589 66.65 79.0477 66.2111 78.6922 65.6667C78.3366 65.1111 78.1589 64.5056 78.1589 63.85C78.1589 63.0278 78.4033 62.3389 78.8922 61.7833C79.3922 61.2278 80.0144 60.7778 80.7589 60.4333V60.0333C80.3811 59.7 80.0589 59.3111 79.7922 58.8667C79.5366 58.4222 79.4089 57.9 79.4089 57.3C79.4089 56.7111 79.5477 56.1722 79.8255 55.6833C80.1144 55.1944 80.5477 54.8 81.1255 54.5C81.7033 54.2 82.4366 54.05 83.3255 54.05C84.57 54.05 85.5033 54.3222 86.1255 54.8667C86.7477 55.4111 87.0589 56.0889 87.0589 56.9C87.0589 57.4333 86.9311 57.9 86.6755 58.3C86.42 58.7 86.0811 59.0389 85.6589 59.3167C85.2477 59.5944 84.8033 59.8333 84.3255 60.0333V60.4333L86.0422 62.0667C86.1755 62.2 86.2922 62.3333 86.3922 62.4667C86.5033 62.6 86.5977 62.7333 86.6755 62.8667H87.0755C87.2422 62.4556 87.3755 62.0389 87.4755 61.6167C87.5755 61.1944 87.6477 60.7778 87.6922 60.3667H91.1089V62.2667H89.2255C89.1366 62.5778 89.0144 62.8833 88.8589 63.1833C88.7144 63.4833 88.5366 63.7944 88.3255 64.1167L91.4589 67.15V67.25H88.1089L86.7755 65.7833H86.3755C85.9977 66.2611 85.5144 66.6667 84.9255 67C84.3477 67.3222 83.5866 67.4833 82.6422 67.4833ZM83.2089 65.4167C83.6866 65.4167 84.0977 65.3444 84.4422 65.2C84.7866 65.0444 85.0922 64.8278 85.3589 64.55L81.9922 61.3333C81.6144 61.5778 81.3033 61.8611 81.0589 62.1833C80.8144 62.4944 80.6922 62.8722 80.6922 63.3167C80.6922 63.9278 80.9255 64.4333 81.3922 64.8333C81.8589 65.2222 82.4644 65.4167 83.2089 65.4167ZM82.9255 59.0667C83.4144 58.8333 83.8311 58.5611 84.1755 58.25C84.52 57.9389 84.6922 57.55 84.6922 57.0833C84.6922 56.7167 84.5811 56.4167 84.3589 56.1833C84.1477 55.9389 83.8033 55.8167 83.3255 55.8167C82.8144 55.8167 82.4366 55.95 82.1922 56.2167C81.9589 56.4722 81.8422 56.7944 81.8422 57.1833C81.8422 57.5611 81.9477 57.9056 82.1589 58.2167C82.37 58.5167 82.6255 58.8 82.9255 59.0667Z" fill="#A61210"/>
<path d="M99.9263 67.25V54.25H102.726V65.05H108.16V67.25H99.9263Z" fill="#2B2B2B"/>
<path d="M116.318 67.4833C114.941 67.4833 113.791 67.2111 112.868 66.6667C111.957 66.1111 111.274 65.3278 110.818 64.3167C110.374 63.3056 110.152 62.1167 110.152 60.75C110.152 59.3722 110.374 58.1833 110.818 57.1833C111.274 56.1722 111.957 55.3944 112.868 54.85C113.791 54.2944 114.941 54.0167 116.318 54.0167C117.707 54.0167 118.857 54.2944 119.768 54.85C120.68 55.3944 121.357 56.1722 121.802 57.1833C122.257 58.1833 122.485 59.3722 122.485 60.75C122.485 62.1167 122.257 63.3056 121.802 64.3167C121.357 65.3278 120.68 66.1111 119.768 66.6667C118.857 67.2111 117.707 67.4833 116.318 67.4833ZM116.318 65.3833C117.441 65.3833 118.263 64.9833 118.785 64.1833C119.318 63.3722 119.585 62.2278 119.585 60.75C119.585 59.2611 119.318 58.1167 118.785 57.3167C118.263 56.5167 117.441 56.1167 116.318 56.1167C115.196 56.1167 114.368 56.5167 113.835 57.3167C113.313 58.1167 113.052 59.2611 113.052 60.75C113.052 62.2278 113.313 63.3722 113.835 64.1833C114.368 64.9833 115.196 65.3833 116.318 65.3833Z" fill="#2B2B2B"/>
<path d="M131.158 67.4833C129.781 67.4833 128.631 67.2111 127.708 66.6667C126.797 66.1111 126.114 65.3278 125.658 64.3167C125.214 63.3056 124.992 62.1167 124.992 60.75C124.992 59.3722 125.214 58.1833 125.658 57.1833C126.114 56.1722 126.797 55.3944 127.708 54.85C128.631 54.2944 129.781 54.0167 131.158 54.0167C132.547 54.0167 133.697 54.2944 134.608 54.85C135.519 55.3944 136.197 56.1722 136.642 57.1833C137.097 58.1833 137.325 59.3722 137.325 60.75C137.325 62.1167 137.097 63.3056 136.642 64.3167C136.197 65.3278 135.519 66.1111 134.608 66.6667C133.697 67.2111 132.547 67.4833 131.158 67.4833ZM131.158 65.3833C132.281 65.3833 133.103 64.9833 133.625 64.1833C134.158 63.3722 134.425 62.2278 134.425 60.75C134.425 59.2611 134.158 58.1167 133.625 57.3167C133.103 56.5167 132.281 56.1167 131.158 56.1167C130.036 56.1167 129.208 56.5167 128.675 57.3167C128.153 58.1167 127.892 59.2611 127.892 60.75C127.892 62.2278 128.153 63.3722 128.675 64.1833C129.208 64.9833 130.036 65.3833 131.158 65.3833Z" fill="#2B2B2B"/>
<path d="M140.598 67.25V54.25H143.332V59.25H144.332L148.065 54.25H151.165V54.35L146.665 60.2167L151.898 67.15V67.25H148.565L144.332 61.45H143.332V67.25H140.598Z" fill="#2B2B2B"/>
<path d="M1.13333 85.25V72.25H5.76667C8.07778 72.25 9.75556 72.8222 10.8 73.9667C11.8444 75.1 12.3667 76.6944 12.3667 78.75C12.3667 80.8056 11.8444 82.4056 10.8 83.55C9.75556 84.6833 8.07778 85.25 5.76667 85.25H1.13333ZM3.93333 83.0833H5.6C6.45556 83.0833 7.16667 82.9556 7.73333 82.7C8.31111 82.4333 8.74444 81.9889 9.03333 81.3667C9.32222 80.7333 9.46667 79.8611 9.46667 78.75C9.46667 77.6389 9.32222 76.7722 9.03333 76.15C8.74444 75.5167 8.31111 75.0722 7.73333 74.8167C7.16667 74.55 6.45556 74.4167 5.6 74.4167H3.93333V83.0833Z" fill="#2B2B2B"/>
<path d="M15.6411 85.25V72.25H24.5078V74.45H18.4078V77.3167H23.1078V79.35H18.4078V83.05H24.6078V85.25H15.6411Z" fill="#2B2B2B"/>
<path d="M30.9206 85.25L27.0039 72.35V72.25H29.8372L33.0039 82.85H33.4039L36.5372 72.25H39.2372V72.35L35.3206 85.25H30.9206Z" fill="#2B2B2B"/>
<path d="M42.1372 85.25V72.25H51.0039V74.45H44.9039V77.3167H49.6039V79.35H44.9039V83.05H51.1039V85.25H42.1372Z" fill="#2B2B2B"/>
<path d="M54.6333 85.25V72.25H57.4333V83.05H62.8667V85.25H54.6333Z" fill="#2B2B2B"/>
<path d="M71.0255 85.4833C69.6477 85.4833 68.4977 85.2111 67.5755 84.6667C66.6644 84.1111 65.9811 83.3278 65.5255 82.3167C65.0811 81.3056 64.8589 80.1167 64.8589 78.75C64.8589 77.3722 65.0811 76.1833 65.5255 75.1833C65.9811 74.1722 66.6644 73.3944 67.5755 72.85C68.4977 72.2944 69.6477 72.0167 71.0255 72.0167C72.4144 72.0167 73.5644 72.2944 74.4755 72.85C75.3866 73.3944 76.0644 74.1722 76.5089 75.1833C76.9644 76.1833 77.1922 77.3722 77.1922 78.75C77.1922 80.1167 76.9644 81.3056 76.5089 82.3167C76.0644 83.3278 75.3866 84.1111 74.4755 84.6667C73.5644 85.2111 72.4144 85.4833 71.0255 85.4833ZM71.0255 83.3833C72.1477 83.3833 72.97 82.9833 73.4922 82.1833C74.0255 81.3722 74.2922 80.2278 74.2922 78.75C74.2922 77.2611 74.0255 76.1167 73.4922 75.3167C72.97 74.5167 72.1477 74.1167 71.0255 74.1167C69.9033 74.1167 69.0755 74.5167 68.5422 75.3167C68.02 76.1167 67.7589 77.2611 67.7589 78.75C67.7589 80.2278 68.02 81.3722 68.5422 82.1833C69.0755 82.9833 69.9033 83.3833 71.0255 83.3833Z" fill="#2B2B2B"/>
<path d="M80.4654 85.25V72.25H85.8987C87.5654 72.25 88.782 72.6056 89.5487 73.3167C90.3154 74.0167 90.6987 74.9611 90.6987 76.15C90.6987 77.3389 90.3154 78.2889 89.5487 79C88.7931 79.7111 87.5765 80.0667 85.8987 80.0667H83.232V85.25H80.4654ZM83.232 77.9667H85.482C86.2376 77.9667 86.8265 77.8389 87.2487 77.5833C87.682 77.3167 87.8987 76.8444 87.8987 76.1667C87.8987 75.5 87.682 75.0333 87.2487 74.7667C86.8265 74.4889 86.2376 74.35 85.482 74.35H83.232V77.9667Z" fill="#2B2B2B"/>
<path d="M93.9576 85.25V72.25H98.8909L101.308 83.05H101.908L104.324 72.25H109.258V85.25H106.658V74.55H106.224L103.858 85.25H99.2242L96.8576 74.55H96.4242V85.25H93.9576Z" fill="#2B2B2B"/>
<path d="M113.29 85.25V72.25H122.156V74.45H116.056V77.3167H120.756V79.35H116.056V83.05H122.256V85.25H113.29Z" fill="#2B2B2B"/>
<path d="M125.786 85.25V72.25H130.619L134.652 83.05H135.052V72.25H137.586V85.25H132.719L128.702 74.45H128.319V85.25H125.786Z" fill="#2B2B2B"/>
<path d="M144.705 85.25V74.45H140.855V72.25H151.355V74.45H147.505V85.25H144.705Z" fill="#2B2B2B"/>
<path d="M5.15 103.483C4.20556 103.483 3.4 103.317 2.73333 102.983C2.06667 102.65 1.55556 102.211 1.2 101.667C0.844444 101.111 0.666667 100.506 0.666667 99.85C0.666667 99.0278 0.911111 98.3389 1.4 97.7833C1.9 97.2278 2.52222 96.7778 3.26667 96.4333V96.0333C2.88889 95.7 2.56667 95.3111 2.3 94.8667C2.04444 94.4222 1.91667 93.9 1.91667 93.3C1.91667 92.7111 2.05556 92.1722 2.33333 91.6833C2.62222 91.1944 3.05556 90.8 3.63333 90.5C4.21111 90.2 4.94444 90.05 5.83333 90.05C7.07778 90.05 8.01111 90.3222 8.63333 90.8667C9.25556 91.4111 9.56667 92.0889 9.56667 92.9C9.56667 93.4333 9.43889 93.9 9.18333 94.3C8.92778 94.7 8.58889 95.0389 8.16667 95.3167C7.75556 95.5944 7.31111 95.8333 6.83333 96.0333V96.4333L8.55 98.0667C8.68333 98.2 8.8 98.3333 8.9 98.4667C9.01111 98.6 9.10556 98.7333 9.18333 98.8667H9.58333C9.75 98.4556 9.88333 98.0389 9.98333 97.6167C10.0833 97.1944 10.1556 96.7778 10.2 96.3667H13.6167V98.2667H11.7333C11.6444 98.5778 11.5222 98.8833 11.3667 99.1833C11.2222 99.4833 11.0444 99.7944 10.8333 100.117L13.9667 103.15V103.25H10.6167L9.28333 101.783H8.88333C8.50556 102.261 8.02222 102.667 7.43333 103C6.85556 103.322 6.09444 103.483 5.15 103.483ZM5.71667 101.417C6.19444 101.417 6.60556 101.344 6.95 101.2C7.29444 101.044 7.6 100.828 7.86667 100.55L4.5 97.3333C4.12222 97.5778 3.81111 97.8611 3.56667 98.1833C3.32222 98.4944 3.2 98.8722 3.2 99.3167C3.2 99.9278 3.43333 100.433 3.9 100.833C4.36667 101.222 4.97222 101.417 5.71667 101.417ZM5.43333 95.0667C5.92222 94.8333 6.33889 94.5611 6.68333 94.25C7.02778 93.9389 7.2 93.55 7.2 93.0833C7.2 92.7167 7.08889 92.4167 6.86667 92.1833C6.65556 91.9389 6.31111 91.8167 5.83333 91.8167C5.32222 91.8167 4.94444 91.95 4.7 92.2167C4.46667 92.4722 4.35 92.7944 4.35 93.1833C4.35 93.5611 4.45556 93.9056 4.66667 94.2167C4.87778 94.5167 5.13333 94.8 5.43333 95.0667Z" fill="#A61210"/>
<path d="M21.3008 103.25V103.15L25.2174 90.25H29.6008L33.5341 103.15V103.25H30.6674L27.5174 92.4167H27.1174L23.9341 103.25H21.3008ZM24.5508 100L25.1341 97.9H29.5008L30.0841 100H24.5508Z" fill="#2B2B2B"/>
<path d="M36.4341 103.25V90.25H41.9508C43.0619 90.25 43.9619 90.4111 44.6508 90.7333C45.3508 91.0444 45.8619 91.4778 46.1841 92.0333C46.5174 92.5778 46.6841 93.2111 46.6841 93.9333C46.6841 94.7556 46.4674 95.4667 46.0341 96.0667C45.6008 96.6667 44.9619 97.0944 44.1174 97.35L47.0341 103.15V103.25H44.0674L41.4174 97.75H39.2008V103.25H36.4341ZM39.2008 95.7167H41.5508C42.273 95.7167 42.8341 95.5944 43.2341 95.35C43.6452 95.1056 43.8508 94.6667 43.8508 94.0333C43.8508 93.3889 43.6452 92.95 43.2341 92.7167C42.823 92.4722 42.2619 92.35 41.5508 92.35H39.2008V95.7167Z" fill="#2B2B2B"/>
<path d="M52.6776 103.25V92.45H48.8276V90.25H59.3276V92.45H55.4776V103.25H52.6776Z" fill="#2B2B2B"/>
<path d="M1.13333 121.25V108.25H5.76667C8.07778 108.25 9.75556 108.822 10.8 109.967C11.8444 111.1 12.3667 112.694 12.3667 114.75C12.3667 116.806 11.8444 118.406 10.8 119.55C9.75556 120.683 8.07778 121.25 5.76667 121.25H1.13333ZM3.93333 119.083H5.6C6.45556 119.083 7.16667 118.956 7.73333 118.7C8.31111 118.433 8.74444 117.989 9.03333 117.367C9.32222 116.733 9.46667 115.861 9.46667 114.75C9.46667 113.639 9.32222 112.772 9.03333 112.15C8.74444 111.517 8.31111 111.072 7.73333 110.817C7.16667 110.55 6.45556 110.417 5.6 110.417H3.93333V119.083Z" fill="#2B2B2B"/>
<path d="M15.6411 121.25V108.25H18.4411V121.25H15.6411Z" fill="#2B2B2B"/>
<path d="M22.4732 121.25V108.25H27.9898C29.101 108.25 30.001 108.411 30.6898 108.733C31.3898 109.044 31.901 109.478 32.2232 110.033C32.5565 110.578 32.7232 111.211 32.7232 111.933C32.7232 112.756 32.5065 113.467 32.0732 114.067C31.6398 114.667 31.001 115.094 30.1565 115.35L33.0732 121.15V121.25H30.1065L27.4565 115.75H25.2398V121.25H22.4732ZM25.2398 113.717H27.5898C28.3121 113.717 28.8732 113.594 29.2732 113.35C29.6843 113.106 29.8898 112.667 29.8898 112.033C29.8898 111.389 29.6843 110.95 29.2732 110.717C28.8621 110.472 28.301 110.35 27.5898 110.35H25.2398V113.717Z" fill="#2B2B2B"/>
<path d="M36.1411 121.25V108.25H45.0078V110.45H38.9078V113.317H43.6078V115.35H38.9078V119.05H45.1078V121.25H36.1411Z" fill="#2B2B2B"/>
<path d="M53.4885 121.5C51.5997 121.5 50.133 120.906 49.0885 119.717C48.0552 118.528 47.5385 116.872 47.5385 114.75C47.5385 112.65 48.0497 111 49.0719 109.8C50.0941 108.6 51.5608 108 53.4719 108C54.6163 108 55.5941 108.217 56.4052 108.65C57.2163 109.072 57.8497 109.661 58.3052 110.417C58.7608 111.172 59.0274 112.039 59.1052 113.017H56.3219C56.233 112.106 55.9385 111.394 55.4385 110.883C54.9385 110.361 54.2885 110.1 53.4885 110.1C52.4774 110.1 51.7163 110.506 51.2052 111.317C50.6941 112.128 50.4385 113.278 50.4385 114.767C50.4385 116.311 50.6997 117.472 51.2219 118.25C51.7552 119.017 52.5052 119.4 53.4719 119.4C54.3052 119.4 54.9663 119.133 55.4552 118.6C55.9552 118.067 56.2441 117.361 56.3219 116.483H59.1052C59.0274 117.461 58.7608 118.328 58.3052 119.083C57.8497 119.839 57.2163 120.433 56.4052 120.867C55.6052 121.289 54.633 121.5 53.4885 121.5Z" fill="#2B2B2B"/>
<path d="M64.8807 121.25V110.45H61.0307V108.25H71.5307V110.45H67.6807V121.25H64.8807Z" fill="#2B2B2B"/>
<path d="M74.8013 121.25V108.25H77.6013V121.25H74.8013Z" fill="#2B2B2B"/>
<path d="M87.0333 121.483C85.6556 121.483 84.5056 121.211 83.5833 120.667C82.6722 120.111 81.9889 119.328 81.5333 118.317C81.0889 117.306 80.8667 116.117 80.8667 114.75C80.8667 113.372 81.0889 112.183 81.5333 111.183C81.9889 110.172 82.6722 109.394 83.5833 108.85C84.5056 108.294 85.6556 108.017 87.0333 108.017C88.4222 108.017 89.5722 108.294 90.4833 108.85C91.3944 109.394 92.0722 110.172 92.5167 111.183C92.9722 112.183 93.2 113.372 93.2 114.75C93.2 116.117 92.9722 117.306 92.5167 118.317C92.0722 119.328 91.3944 120.111 90.4833 120.667C89.5722 121.211 88.4222 121.483 87.0333 121.483ZM87.0333 119.383C88.1556 119.383 88.9778 118.983 89.5 118.183C90.0333 117.372 90.3 116.228 90.3 114.75C90.3 113.261 90.0333 112.117 89.5 111.317C88.9778 110.517 88.1556 110.117 87.0333 110.117C85.9111 110.117 85.0833 110.517 84.55 111.317C84.0278 112.117 83.7667 113.261 83.7667 114.75C83.7667 116.228 84.0278 117.372 84.55 118.183C85.0833 118.983 85.9111 119.383 87.0333 119.383Z" fill="#2B2B2B"/>
<path d="M96.4732 121.25V108.25H101.307L105.34 119.05H105.74V108.25H108.273V121.25H103.407L99.3898 110.45H99.0065V121.25H96.4732Z" fill="#2B2B2B"/>
</svg>
